<svg xmlns="http://www.w3.org/2000/svg" width="87.056" height="80" viewBox="0 0 87.056 80">
  <g id="icon-private" transform="translate(0 174.173)">
    <path id="Pfad_280" data-name="Pfad 280" d="M59.017-135.412c.259,0,0,.26,0,0,.037,0,0,.037,0,0" transform="translate(-31.91 -20.958)" fill="#2b2e34" fill-rule="evenodd"/>
    <path id="Pfad_281" data-name="Pfad 281" d="M57.087-133.012c.193.034.049.23-.11.22,0-.109.15-.07.11-.22" transform="translate(-30.806 -22.255)" fill="#2b2e34" fill-rule="evenodd"/>
    <path id="Pfad_282" data-name="Pfad 282" d="M109.607-134.5c-.068.093-.916,1.018-1.031.9.177-.3.858-.928,1.031-.9" transform="translate(-58.706 -21.452)" fill="#2b2e34" fill-rule="evenodd"/>
    <path id="Pfad_283" data-name="Pfad 283" d="M56.3-131.7c.01.12-.045.175-.165.165.059-.051.017-.2.165-.165" transform="translate(-30.352 -22.962)" fill="#2b2e34" fill-rule="evenodd"/>
    <path id="Pfad_284" data-name="Pfad 284" d="M82.294-131.692a2.1,2.1,0,0,0-.551.606c-.24-.251.26-.538.551-.606" transform="translate(-44.163 -22.969)" fill="#2b2e34" fill-rule="evenodd"/>
    <path id="Pfad_285" data-name="Pfad 285" d="M72.337-131.212c.037,0,0,.037,0,0" transform="translate(-39.111 -23.229)" fill="#2b2e34" fill-rule="evenodd"/>
    <path id="Pfad_286" data-name="Pfad 286" d="M55.749-131.1c-.017.113-.11.147-.165.22-.166-.082.04-.247.165-.22" transform="translate(-30.02 -23.29)" fill="#2b2e34" fill-rule="evenodd"/>
    <path id="Pfad_287" data-name="Pfad 287" d="M71.112-130.867c.026.118-.092.106-.165.11-.086.073-.718.992-.808,1.063-.313-.174.534-1.223.973-1.173.119.014-.252-.035,0,0" transform="translate(-37.886 -23.408)" fill="#2b2e34" fill-rule="evenodd"/>
    <path id="Pfad_288" data-name="Pfad 288" d="M54.314-129.75a.656.656,0,0,1-.457.541c.034-.131.185-.541.457-.541" transform="translate(-29.12 -24.019)" fill="#2b2e34" fill-rule="evenodd"/>
    <path id="Pfad_289" data-name="Pfad 289" d="M142.232-124.732c.175.047.074.165-.055.165a.262.262,0,0,0,.055-.165c.114.031,0,.076,0,0" transform="translate(-76.873 -26.732)" fill="#2b2e34" fill-rule="evenodd"/>
    <path id="Pfad_290" data-name="Pfad 290" d="M109.367-100.267a3.991,3.991,0,0,0,.958.07,5.873,5.873,0,0,1,.914-.037,1.481,1.481,0,0,0,.771.029,3.446,3.446,0,0,1,.851,1.185,5.63,5.63,0,0,1,.223.667,6.326,6.326,0,0,0,.175.626,9.934,9.934,0,0,1,.417,1.57c.052.25.1.5.157.75a.67.67,0,0,0,.107.315,13.33,13.33,0,0,1,.516,2,8.03,8.03,0,0,1,.2.8c.028.27.016.539.054.809a7.535,7.535,0,0,0,.42,1.755,2.113,2.113,0,0,1,.169.616,3.239,3.239,0,0,0,.177.695.891.891,0,0,1,.011.618c-.223-.007-.385.158-.606.166-.513.016-.95.056-1.463.076a3.78,3.78,0,0,1-.865-.057c-.27-.054-.492.01-.814-.019a5.594,5.594,0,0,1-1.629-.006,1.079,1.079,0,0,1-.568-.353c.059-.246-.022-.543.157-.744.289,0,.536-.029.625-.32a1.611,1.611,0,0,0-.089-.9,3.325,3.325,0,0,1-.095-.433c-.165-.022-.33-.037-.5-.047-.3-.019-.609-.023-.913-.038a4.725,4.725,0,0,1-.861-.109,3.1,3.1,0,0,1-.432-.137c-.036-.1.06-.533-.079-.566a6.3,6.3,0,0,0-.53,1.57c-.051.184-.28.557-.132.681a2.2,2.2,0,0,0,.717.312c.319.11.393.33.3.657-.078.267-.165.312-.422.366a7.556,7.556,0,0,1-1.414.122,5.5,5.5,0,0,1-1.414-.074c-.213-.053-.456-.114-.525-.324-.06-.182-.232-.458,0-.593.321-.192,1.05-.076,1.09-.539a6.816,6.816,0,0,1,.432-1.665c.089-.251.176-.5.241-.761.046-.184.022-.54.187-.656.2-.141.187-.5.263-.726.1-.292.228-.573.325-.866s.05-.557.12-.844c.075-.307.19-.6.294-.9.18-.521.107-1.253.443-1.7.151-.186.475-.181.514.039.033.179.349.76.411.97a1.742,1.742,0,0,1,.1.755,28.8,28.8,0,0,1-.859,3.749c-.01.082-.121.289-.069.289.079,0,.28-.313.31-.316a11.706,11.706,0,0,1,1.626-.047c.179.007.338.11.355-.113a1.876,1.876,0,0,0-.014-.406,1.69,1.69,0,0,0-.222-.676c-.043-.1-.073-.463-.105-.609a3.846,3.846,0,0,0-.114-.692c-.2-.483-.249-1.276-.434-1.765a3.608,3.608,0,0,1-.238-.759,4.125,4.125,0,0,0-.224-.864,6.775,6.775,0,0,1-.53-1.175,2.239,2.239,0,0,0-.394-.846c-.175-.2-.105-.384.108-.514.417-.252.61-.136,1.147-.112.151.007.578.026.676.051" transform="translate(-56.132 -39.908)" fill="#2b2e34" fill-rule="evenodd"/>
    <path id="Pfad_291" data-name="Pfad 291" d="M101.956-99.774a.89.89,0,0,1,.288.845,2.36,2.36,0,0,1-.067.423,3.668,3.668,0,0,1-.544.186,4.183,4.183,0,0,1-.559.09,2.459,2.459,0,0,1-.063.478,4.859,4.859,0,0,1-.161.6,4.586,4.586,0,0,1-.231.716c-.2.33.006.568-.194.892a3.541,3.541,0,0,0-.474,1.192,12.047,12.047,0,0,1-.463,1.649c-.079.147-.242.734-.379.8-.23.115-.247-.294-.273-.406a2.1,2.1,0,0,0-.135-.461,1.438,1.438,0,0,0-.166-.435,3.994,3.994,0,0,1-.367-.968,5.567,5.567,0,0,1,.206-.583,5.7,5.7,0,0,1,.15-.6c.2-.653.506-1.266.723-1.914a5.964,5.964,0,0,0,.229-.9,1.506,1.506,0,0,0-.665-.493c-.173-.057-.241,0-.306-.176-.052-.142-.14-.266-.2-.4-.045-.095-.162-.559.073-.528a30.265,30.265,0,0,0,3.582,0c.363.221-1.124.14,0,0" transform="translate(-53.078 -40.226)" fill="#2b2e34" fill-rule="evenodd"/>
    <path id="Pfad_292" data-name="Pfad 292" d="M51.869-57.173c.155.088-.119.206-.11.331-.149-.083.088-.238.11-.331" transform="translate(-27.959 -63.261)" fill="#2b2e34" fill-rule="evenodd"/>
    <path id="Pfad_293" data-name="Pfad 293" d="M68.678-56.452c-.2.139-.42.5-.661.276.161-.215.364-.141.661-.276" transform="translate(-36.776 -63.65)" fill="#2b2e34" fill-rule="evenodd"/>
    <path id="Pfad_294" data-name="Pfad 294" d="M82.827-45.8a.4.4,0,0,1-.441.386c.031.127.069.258-.11.275-.062-.178.046-.308.175-.417.185-.156.128-.307.336-.446.35-.235.534-.681.922-.845.006.243-.212.424-.373.575a1.93,1.93,0,0,0-.3.332c-.025.037-.147.342-.2.141-.014.112.012.043,0,0" transform="translate(-44.475 -68.841)" fill="#2b2e34" fill-rule="evenodd"/>
    <path id="Pfad_295" data-name="Pfad 295" d="M114.547-45.064c-.048.081-.5.561-.635.551-.042-.194.559-.633.635-.551" transform="translate(-61.59 -69.802)" fill="#2b2e34" fill-rule="evenodd"/>
    <path id="Pfad_296" data-name="Pfad 296" d="M103.849-44.463c.162.047-.3.458-.262.556-.224-.074.251-.421.262-.556" transform="translate(-55.975 -70.133)" fill="#2b2e34" fill-rule="evenodd"/>
    <path id="Pfad_297" data-name="Pfad 297" d="M112.342-42.412c.146.056-.1.218-.165.22q.077-.064,0-.11c.013-.086.164-.012.165-.11.136.052,0,.09,0,0" transform="translate(-60.653 -71.242)" fill="#2b2e34" fill-rule="evenodd"/>
    <path id="Pfad_298" data-name="Pfad 298" d="M111.705-41.692a.992.992,0,0,1-.276.331c-.094-.08.123-.316.276-.331" transform="translate(-60.236 -71.631)" fill="#2b2e34" fill-rule="evenodd"/>
    <path id="Pfad_299" data-name="Pfad 299" d="M110.049-40.852c-.235.482-.757.676-.992,1.158a1.313,1.313,0,0,1,.992-1.158" transform="translate(-58.966 -72.085)" fill="#2b2e34" fill-rule="evenodd"/>
    <path id="Pfad_300" data-name="Pfad 300" d="M58.028-97.284s0,.051,0,.055c-.262.3.265-.1,0-.055m2.094-.772c.164,0,.22-.128.055-.165a.42.42,0,0,0-.055.165c.037,0-.016-.089,0,0m-21.275-5.016a.307.307,0,0,1-.22-.055c-.089.153.238.152.22.055m-4.244-.882a.372.372,0,0,1,.11.056c0-.073.007-.191-.11-.165v.11c.055,0,0-.037,0,0m-12.4-.33a.36.36,0,0,1,.11.055c0-.073.007-.191-.11-.165v.11c.055,0,0-.037,0,0m39.3-8.1c-.194,0-.354.139-.552.11a2.048,2.048,0,0,1-.684-.292,2.684,2.684,0,0,0-.6-.276c-.377-.1-.478.074-.728.334q-.66.685-1.3,1.389-.35.384-.695.772l-.344.388c-.092.077-.114,0-.221,0,.077.34-.245.463-.467.677a8.191,8.191,0,0,0-.717.8,12.98,12.98,0,0,1-1.29,1.377c-.05.047-.518.423-.467.508.037.061.152.093.187.011.062-.146.1-.118.269-.164.761-.2,1.465-.571,2.218-.8a2.647,2.647,0,0,0,.678-.474c.119-.1.09-.139.231-.169a.592.592,0,0,0,.284-.164c.48-.468,1.1-.756,1.613-1.184.53-.441,1.216-.729,1.784-1.129a7.558,7.558,0,0,0,1.63-1.5c-.3.033-.534-.218-.826-.22h0m.275-3.2c-.034-.016-.212-.137-.22,0,.034.016.212.137.22,0m-43.763-.441c.01-.138-.123-.134-.165-.22-.01.138.085.173.165.22m7.5-.11c-.132.181-.412-.2-.54-.255-.3-.121-.356.4-.673.42.109.113-.037.152-.112.212-.125.1.013.234-.107.34s-.621.721-.774.605c0,.312-.235.394-.442.616a5.8,5.8,0,0,0-.549.707c.225-.017.129.2.22.33a.571.571,0,0,1,.386.441c.241.04.369.282.606.331.006.194.156.271.3.36a.415.415,0,0,1,.168.163c.064.132.132.084.263.152.2.1.3.3.449.457.114.119.158.01.252.081.078.059-.014.174.124.19.218.025.3.2.427.361.012.015-.133.087,0,.156.068.034.248.059.162.175.295-.094.333.274.546.244.129-.018.274-.3.355-.391a4.993,4.993,0,0,1,.542-.559c.129-.113.324-.2.4-.35a.2.2,0,0,0,.028-.156,2.214,2.214,0,0,0,.31-.276c.276-.29.506-.615.8-.891a1.841,1.841,0,0,0,.653-.928,2.011,2.011,0,0,1-.992-.551,3.619,3.619,0,0,0-.914.728c-.142.192-.282.475-.531.546a.547.547,0,0,1-.356-.04,1.483,1.483,0,0,1-.238-.131.842.842,0,0,1-.374.088c-.283-.034.363-.436-.193-.309-.444.1-.414.567-.694.791-.171.137-.6.754-.824.59-.327-.244.024-.543.226-.811.248-.33.617-.539.852-.866a6.123,6.123,0,0,0,.843-2.184c-.287-.008-.4-.229-.606-.386-.169.233.186.144,0,0M27-117.843a1.829,1.829,0,0,0,.166-.937c-.053-.185-.314.318-.5.165.155.417-.636.536-.5.937.219-.157.663.078.826-.165.109-.259-.132.2,0,0m-8.873-2.921a3.038,3.038,0,0,0-.706-.094c-.417.021-.2.217-.065.452a.807.807,0,0,1,.107.327c.019.2.064.164.211.29a.876.876,0,0,1,.287.625,2.776,2.776,0,0,0,.9-.7c.142-.15.61-.732.79-.629a.179.179,0,0,0,.241-.084c.047-.159-.309-.19-.4-.2a11.055,11.055,0,0,1-1.368.012h0M22.973-119c-.2-.061-.164.214-.281.313a4.954,4.954,0,0,0-.512.527c-.16.185-.316.375-.486.553a3.35,3.35,0,0,0-.4.667,4.825,4.825,0,0,0-.719,1.062c-.128.413.519.647.463,1.066.366-.051.467.546.718.771.351.313.615.2.8-.2.108-.236.216-.47.522-.4.087-.405.393-1,.882-.992-.129-.692,1.179-.924.5-1.654.326-.159.883-.148,1.106-.409q.513-.6,1.046-1.186t1.071-1.161a1.458,1.458,0,0,1,.468-.423.65.65,0,0,0,.388-.348c-.013-.283-.591-.162-.8-.162-.421,0-.842,0-1.263.021a6.8,6.8,0,0,0-2.4.417c.024-.294-.658-.15-.836-.148-.373,0-.746,0-1.119-.016s-.768-.028-1.151-.041c-.208-.007-.467-.075-.634.063a4.532,4.532,0,0,0-.366.356c-.2.2-.569.344-.693.568a3.511,3.511,0,0,1-.576.67c-.188.2-.437.434-.245.676.119.151.418.489.219.683.069,0,.312-.055.325.063,0,.041-.076.147.006.158.049-.174.138.038.151.074A1.48,1.48,0,0,0,19.4-117a1.569,1.569,0,0,0,.709.48c-.105.107-.018.322.13.1a1.738,1.738,0,0,1,.3-.447,4.182,4.182,0,0,0,.7-.784,5.611,5.611,0,0,1,.707-.828c.2-.18.646-.293.594-.633.176,0,.185.039.275-.117a1.407,1.407,0,0,1,.331-.355c.082-.068.417-.523.519-.509.123.017-.27.465-.308.5a1.343,1.343,0,0,0-.376.587c-.184-.055.118-.471,0,0m29.708,8.653c-.187.233-.367.473-.565.7-.147.167-.537.414-.537.626s-.321.419-.453.584c-.166.207-.316.427-.471.642a5.567,5.567,0,0,1-.5.618c-.142.149-.51.333-.51.526,0,.222-.367.479-.51.657a6.879,6.879,0,0,0-.593.886,9.053,9.053,0,0,0,1.54-.535c.64-.161,1.3-.2,1.944-.341.288-.062.586-.076.679-.382.054-.176.075-.1.215-.189a.965.965,0,0,0,.263-.31,8.315,8.315,0,0,1,1.2-1.439,7.509,7.509,0,0,1,.707-.575c.22-.161.353-.486.558-.694.368-.373.947-.721,1.16-1.212a12.84,12.84,0,0,0,1.4-1.357c.218-.242.431-.489.641-.737.219.071.115-.058.165-.22-.22-.043-.411.156-.634.177a1.188,1.188,0,0,0-.8.319c-.181.194-.181.541-.44.661a.473.473,0,0,1-.576-.11c-.147-.143-.423-.288-.411-.475a2.656,2.656,0,0,1,.209-.844,4.37,4.37,0,0,0,.5-1.6c-.671.385-1,1.134-1.6,1.6.159-.59.63-.871,1.018-1.293a1.64,1.64,0,0,0,.255-.361c.085-.166.185-.059.29-.2a1.027,1.027,0,0,0,.116-.325c.049-.156-.206-.295-.323-.4-.276-.248-.555-.492-.846-.722-.255-.2-.849-.436-.775-.79s.331-.048.518-.218c.145-.132.124-.232.316-.282a2.218,2.218,0,0,1,.423-.15c-.11.3.575.293.734.3a3.677,3.677,0,0,0,.564-.016c.278-.029.374-.007.464-.264.117-.331.3-.636.394-.976.09-.324-.128-.665.269-.846a1.131,1.131,0,0,1,.458-.082c.248,0,.259-.013.259.23.318.087.469.378.6.653a2.354,2.354,0,0,0,.2.357c.135.186.085.256.15.476a2.29,2.29,0,0,0,.206.461c.1.181.435.1.621.07a2.988,2.988,0,0,1,.907-.1c.143.022.309.167.435.075.218-.161.215-.221.361.049.081.149.5.655.436.745a3.705,3.705,0,0,1-.349.346c-.13.14-.129.357-.293.457a4.44,4.44,0,0,0-.413.213c-.131.1,0,.166-.214.195-.155.021.007.173-.061.246-.092.1-.238.047-.344.189-.329.442-.246,1.189.4,1.244-.088.145.021.295.118.4a.726.726,0,0,1,.2.39c.095.292.388.612.18.921.107.008.124-.079.11-.165a2.7,2.7,0,0,0,.342-.216,3.685,3.685,0,0,0,.576-.539c.38-.431.688-.92,1.056-1.361a5.534,5.534,0,0,1,1.283-1.139,5.891,5.891,0,0,0,1.251-1.559A17.611,17.611,0,0,0,68.292-119q.125-.206.243-.418c.1-.186.132-.089.254-.217.213-.226.185-.425.2-.712.017-.272.065-.541.078-.813.017-.36-.248-.411-.587-.432-.543-.033-1.5-.051-2.05-.057-1.156-.012-1.485-.039-2.326.022-.114.008-.847.028-1.008.032a4.174,4.174,0,0,1-.448.033,6.625,6.625,0,0,1-.668.029,4.732,4.732,0,0,0-.629.085c-.371.047-.747.059-1.121.073-.315.012-.628.03-.943.026s-1.44.03-1.771.045c-.8.036-1.908.133-2.211.122s-1.068.048-1.277.043a8.284,8.284,0,0,0-.854,0c-.274-.008-.6.014-.926.007-.295-.006-.615-.02-.719-.03-.2-.019-.688.007-.9.009-.4,0-.659-.018-1.294-.058-.545-.034-.879-.051-1.434-.068-.581-.019-1.234-.037-1.815-.034s-1.186-.042-1.779-.025c-.564.016-1.09-.019-1.651.036-.287.028-.574.055-.862.072-.176.011-.352.018-.528.021a5.947,5.947,0,0,1-.964.011c-.172,0-.344,0-.516,0s-1.722-.021-2.379.036a32.235,32.235,0,0,0-4.684.234c.018-.229-3.2,0-3.556-.027-.166-.014-.21-.079-.291.074a1.245,1.245,0,0,1-.267.321,1.075,1.075,0,0,0-.4.625,2.783,2.783,0,0,1,.826,1.764c.158-.06.063.171.22.11.145.043.186-.035.223-.156.048-.156.134-.079.251-.126.152-.061.239-.237.352-.345.149-.144.318-.072.322-.27a.223.223,0,0,1,.191-.246c.108-.016.192.01.288-.059s.3-.391.468-.286a4.481,4.481,0,0,0-.7.67c-.169.182-.573.417-.64.628-.061.192-.287.246-.383.41-.187.32.346.163.495.163a2.88,2.88,0,0,1,.9.145,1.952,1.952,0,0,1,.319.135.241.241,0,0,1,.38-.014c.333.306-.263.19-.17.427.084.214,0,.61-.185.68-.3.115-.557.32-.852.451a.776.776,0,0,0,.114.719c.23.251.594-.332.759-.513q.406-.448.781-.923c.16.007.107.122.252-.04a3.364,3.364,0,0,1,.357-.367c.138-.114.188-.092.23-.264a.8.8,0,0,1,.319-.432c.559-.118.726-.7,1.157-.993a.665.665,0,0,1-.276.45c-.138.068-.136.006-.217.16a1.621,1.621,0,0,1-.288.373,3.288,3.288,0,0,0-.551.607.887.887,0,0,1-.445.437c-.149.048-.107.334-.286.4-.08.032-.1.079-.2.05a.832.832,0,0,1-.251.384c-.241.22-.4.48-.615.718-.176.192-.488.417-.458.712.026.26.216.443.167.722-.172.16-.234.4-.4.568-.238.246-.484.032-.777.007-.152-.012-.232-.061-.344.057s-.2.244-.294.367a1.564,1.564,0,0,1-.242.254,1.2,1.2,0,0,0-.339.389,5.526,5.526,0,0,1-.642.742c-.267.29-.543.573-.805.868-.141.16-.278.324-.4.5a1.793,1.793,0,0,1,.11.5c.042-.155.143-.083.193.01.1.183.081.165.31.258a3.829,3.829,0,0,1,1.018.6c.157.131.229.341.417.2a3.268,3.268,0,0,0,.43-.378,8.454,8.454,0,0,0,.8-1.02c.1-.136.284-.141.36-.283a1.464,1.464,0,0,1,.3-.378,2.646,2.646,0,0,0,.624-.634c.1-.192.081-.153.254-.27a1.692,1.692,0,0,0,.353-.427,13.716,13.716,0,0,1,.924-1.03,4.722,4.722,0,0,0,1.135-1.331c.109-.249.32-.339.492-.561a.521.521,0,0,1,.276-.2c.182-.048.192-.234.291-.393a.573.573,0,0,1,.3-.259c.181-.059.189-.218.306-.372.1-.135.223-.254.334-.382s.3-.14.446-.276c.116-.109.215-.235.332-.344.181-.168.119-.108.157-.322.046-.261.443-.319.635-.423-.107.109-.243.419-.441.276a1.787,1.787,0,0,1-.894,1.179c-.246.031-.216.3-.453.415-.169.08-.236.567-.471.39.063.356-.425.694-.64.906a5.085,5.085,0,0,0-1.013,1.3c-.181.022-.255.171-.358.3a.36.36,0,0,1-.248.143.3.3,0,0,1-.1.228,6.053,6.053,0,0,1-.747.871,1.581,1.581,0,0,0-.4.485,1.663,1.663,0,0,1-.572.566c-.088.412-.526.566-.68.937,0,.127-.07.163-.2.111a1.435,1.435,0,0,1-.153.367,4.688,4.688,0,0,1-.454.585,1.889,1.889,0,0,0-.329.537c.182.051.235.27.441.276-.093.059.127.078-.055.165a.775.775,0,0,1,.606.22,1.833,1.833,0,0,1,.733.23c.144.062.289.122.439.169.227.072.15-.013.257-.174a3.857,3.857,0,0,1,.571-.558c.166-.163.214-.374.427-.474.191-.09.266-.373.443-.543a2.638,2.638,0,0,1,.283-.232c.138-.1.085-.154.15-.3a1.921,1.921,0,0,1,.5-.537c.185-.181.153-.472.357-.635a1.685,1.685,0,0,0,.484-.524.644.644,0,0,1,.427-.389,1.727,1.727,0,0,1,.436-.678c.108-.146.157-.376.39-.313a.668.668,0,0,1,.441-.606,1.292,1.292,0,0,1,.882-.827c-.1.338-.484.434-.661.717a.1.1,0,0,1,.11.055c-.224.2-.32.187-.41.485-.063.207-.394.288-.527.452-.175.216-.289.511-.46.741-.23.309-.469.614-.672.942-.134.218-.375.3-.493.55a.837.837,0,0,0-.083.3c-.143.019-.142.015-.2.148-.2.472-.666.781-.914,1.228-.077.138-.066.2-.211.277s-.2.06-.225.22a.747.747,0,0,1-.277.459,2.151,2.151,0,0,0-.364.331c-.206.291.265.3.474.374a11.493,11.493,0,0,0,1.333.5,4,4,0,0,0,.435.079c.237.03.239-.08.375-.256.246-.317.5-.627.756-.935.439-.528.883-1.053,1.3-1.6.194-.085.231-.28.4-.384s.192-.3.354-.407.141.041.233-.156a1.709,1.709,0,0,1,.2-.319,4.283,4.283,0,0,1,.508-.52,3.35,3.35,0,0,0,.5-.534c.11-.158.172-.175.008-.3a3.693,3.693,0,0,1-.429-.4c-.349-.375-.874-.785-.774-1.329.373-.339.931-.181,1.369-.1a2.412,2.412,0,0,0,.669.06.91.91,0,0,0,.3-.077c.135-.063.174,0,.319-.006.354-.006.32-.269.433-.549s.248-.531.383-.791a5.5,5.5,0,0,0,.449-1.06,3.42,3.42,0,0,0,.106-.565.74.74,0,0,1,.538-.149c.155,0,.27-.049.387.064a2.428,2.428,0,0,1,.362.534c.315.525.417-.3.807-.118a1.468,1.468,0,0,0-.552.717c.089.328.367.633.276.992a.225.225,0,0,1,.253.151c.089.27.065.286.365.352a10.007,10.007,0,0,0,1.507.272c.353.024.925.072,1.045-.323.055-.179.167-.084.286-.236.062-.079.126-.186.237-.105-.115.289-.44.417-.558.7-.213.52.481.261.723.4-.068.163-.11.35-.33.331-.132.294-.268.587-.415.875a1.561,1.561,0,0,1-.457.666c-.232.154-.472.3-.689.474-.468.378-.36.687-.245,1.224a4.916,4.916,0,0,0,.428,1.667,6.319,6.319,0,0,0,1.286-1.389c.1-.112.085-.108.211-.092.1.013.174-.223.22-.29.119-.171.277-.077.291-.306.011-.18.065-.218.209-.325a1.77,1.77,0,0,0,.567-.555c.1-.192.03-.2.223-.235a.409.409,0,0,0,.219-.145c.212-.245.37-.819.8-.685a.8.8,0,0,1-.385.276,1.473,1.473,0,0,1-.262.416,3.56,3.56,0,0,0-.684.839,5.871,5.871,0,0,1-.892,1.04,12.774,12.774,0,0,1-.918,1.067c.044.262-.275.466-.424.647a4.76,4.76,0,0,1-.788.878c-.156.114-.157.273-.265.435s-.263.31-.384.474c-.233.318-.612.058-.73-.228.132,0,.15-.123.184-.219.056-.155.172-.063.312-.056.193-.347.538-.58.717-.937a2.585,2.585,0,0,1-.944-.1c-.127-.037-.252-.078-.378-.117a1.2,1.2,0,0,0-.337-.409,8.327,8.327,0,0,0-.893-.659c-.218-.138-.286.016-.449.179a3.408,3.408,0,0,1-.4.363c-.13.095-.24.076-.24.249s-.126.135-.2.284c-.152.314-.615.585-.884.834A6.168,6.168,0,0,1,38.957-105c-.1-.249.2-.365.172-.544-.029-.219.293-.374.453-.492.411-.3,1.126-.729,1.3-1.224a4.23,4.23,0,0,1-1.146.246c-.643-.064-.147-.385-.123-.687-.254.017.095-1.055.133-1.21a10.351,10.351,0,0,0,.3-1.6c.019-.227-.2-.318-.412-.4s-.374.224-.5.377a8.583,8.583,0,0,1-.9,1.062,1.8,1.8,0,0,0-.329.465c-.117.175-.3.158-.4.335a7.654,7.654,0,0,1-.874,1.1,4.175,4.175,0,0,0-.419.57c-.119.2-.367.206-.424.407-.1.373-.533.529-.584.932a19.03,19.03,0,0,1,2.441.612,7.668,7.668,0,0,0,2.5.334,13.144,13.144,0,0,1,2.67.12c.434.032.869.065,1.3.1.361.026.92.154,1.226-.114.03.213,1.263-.091,1.453-.119a5.334,5.334,0,0,0,.973-.212c.156-.12-.069-.545.252-.4.163.074,1.236-1.493,1.408-1.7a15.893,15.893,0,0,1,1.537-1.647c-.193-.054.2-.353.252-.409a5.873,5.873,0,0,1,.575-.638c.288,0,.464-.458.635-.685.2-.262.407-.515.625-.762s.438-.485.662-.723l.336-.356c.158-.167.121-.045.259-.138s.1.029.171-.158a1.759,1.759,0,0,1,.188-.357.794.794,0,0,1,.542-.4c-.274.333-.541.672-.819,1-.235.276-.814.7-.882,1.02-.047.222-.274.294-.4.489a1.384,1.384,0,0,1-.223.292,1.36,1.36,0,0,1-.32.12.366.366,0,0,1,.11.056c-.343.429-.044-.011,0,0M38.98-98.265c.211-.094.381,0,.605.033.419.068.845.087,1.269.115a8.856,8.856,0,0,1,1.356.171c.122-.3.705-.043.975-.008a4.043,4.043,0,0,0,1.23.008c.016.255.629.091.792.09a2.37,2.37,0,0,0,.564-.039A.719.719,0,0,0,46.012-98a.425.425,0,0,0,.195.07,2.787,2.787,0,0,0,.553-.009c.1-.006.2-.009.3-.006.075,0,.047-.1.11-.11.276.15.554-.144.818-.044.155.059.072-.005.164-.1.049-.053.3.027.381.013.237-.039.477-.235.725-.177a.4.4,0,0,1,.171.091.4.4,0,0,1,.173-.139,1.186,1.186,0,0,1,.422-.046.533.533,0,0,0,.4-.146,1.046,1.046,0,0,0,.446-.017,4.029,4.029,0,0,1,.876-.2.813.813,0,0,1,.331-.055c.062-.124.249-.123.364-.129a1.135,1.135,0,0,0,.469-.083c.158-.078.306-.216.49-.119-.008-.225,1.323-.475,1.566-.564a17.9,17.9,0,0,1,1.962-.649c.169-.36.827-.2.937-.551.5.055.878-.508,1.378-.441a.26.26,0,0,0-.055-.165,5.138,5.138,0,0,0,.837-.423,5.993,5.993,0,0,0,.916-.392c.107-.073.208-.156.313-.232.128-.092.288-.081.414-.165.079-.052.2-.306.314-.277.1.026.1.006.072-.109.39.154.538-.539.937-.386-.011-.143.094-.169.21-.194.2-.041.08-.229.314-.273.174-.034.191.01.161-.162,0-.018.4-.226.442-.259.27-.206.48-.479.754-.68a1.444,1.444,0,0,1,.419-.217c.22-.071.368-.282.562-.417.164-.113.352-.147.4-.332.042-.154.2-.2.331-.251.249-.1.344-.511.6-.533.16-.014.161-.161.287-.288s.307-.172.4-.3c.068-.1.12-.288.245-.336.023-.009.11.14.17.112.039-.017-.063-.238-.061-.277a2.435,2.435,0,0,0,.439-.3,2.278,2.278,0,0,1,.443-.3c0-.269.018-.273.221-.44.567-.467.943-1.112,1.458-1.628a3.272,3.272,0,0,1,.416-.356c0-.274,0-.219.193-.358a.506.506,0,0,0,.192-.359c.128.034.15,0,.154-.111s.119-.128.2-.153c.105-.034.141-.259.185-.347.144-.29.6-.386.564-.767.151.058.311-.29.276-.441.286.059.587-.769.719-.953s.333-.335.4-.554a.562.562,0,0,1,.476-.423c-.26-.034-.083-.283-.055-.5.257.1.073-.316.331-.22a.4.4,0,0,1,.135-.44,1.231,1.231,0,0,0,.273-.526,2.062,2.062,0,0,1,.418-.687.554.554,0,0,1,.276-.551c-.245-.045.11-.387.146-.506.069-.231.088-.515.311-.66a1.263,1.263,0,0,0,.2-.654c.048-.058.161-.037.217-.09s-.1-.054-.106-.075c.091-.081.233-.187.055-.276.205-.126.211-.855.441-.827-.18-.026.1-.157-.219-.18-.166-.012-.332-.016-.5-.016-.331,0-.66.022-.99.044-.3.02-.607.042-.911.043-.1,0-.3-.013-.466-.005-.323-.007-.6-.034-.9-.029-.247,0-.98-.11-1.092.079a5.356,5.356,0,0,0-.444,1q-.086.247-.155.5c-.058.216-.056.167-.22.275-.176.633-.585,1.167-.773,1.795a2.838,2.838,0,0,0-.109.575.664.664,0,0,0-.28.33,2.364,2.364,0,0,1-.45.776,7.516,7.516,0,0,0-.63.616c-.111.141-.141.282-.291.376a1.1,1.1,0,0,0-.33.332,14.787,14.787,0,0,1-1.808,2.015c-.628.651-1.256,1.3-1.889,1.949-.282.11-.4.439-.717.5-.074.2-.447.628-.661.441-.019.315-.287.254-.441.441a.154.154,0,0,1,.165.055c-.1.029-.118-.019-.2-.05-.13-.051-.072.1-.12.178a.263.263,0,0,1-.4.037c-.041.154.083.153.111.276-.278,0-.367.45-.608.327.017.009-.8.6-.881.665l-.055.165c-.067.047-.18,0-.277.074-.128.1-.345.4-.522.367s-.282.2-.391.292c-.142.119-.338.065-.463.2.078.01-.426.314-.513.353a.414.414,0,0,1-.2.033.973.973,0,0,1-.239.246,3.268,3.268,0,0,1-.643.327,2.23,2.23,0,0,0-.52.288c-.138.111-.356.1-.531.212a2.406,2.406,0,0,1-.576.3c-.19.062-.414.09-.521.281-.029-.2-.414.112-.468.144a5.258,5.258,0,0,1-.69.34,11.466,11.466,0,0,1-1.606.5c-.555.138-1.115.254-1.673.379a4.1,4.1,0,0,0-.783.215c-.236.1-.488.231-.733.072-.04.2-.841.308-.971.29-.251-.034-.439.158-.68.165s-.427-.066-.639.066c-.124.077-.23-.031-.356-.025-.107.005-.172.107-.276.11a1.793,1.793,0,0,0-.694.05c-.295.1-.412-.045-.684-.05s-.555.137-.827,0c-.013.142-.1.123-.19.068-.062-.038-.371.121-.515.077s-.2-.138-.286-.019c-.137.18-.1-.125-.166-.127.011,0-.018.156-.055.165a1.052,1.052,0,0,1-.521-.1,2.328,2.328,0,0,0-.976-.026,1.567,1.567,0,0,1-.827-.029c-.066-.031-.125-.128-.183-.1a.829.829,0,0,1-.294.052,1.975,1.975,0,0,1-.618-.017c-.068-.018,0-.1-.11-.11-.205-.018-.411-.023-.616-.025-.148,0-.3,0-.444-.009-.106,0-.212-.011-.317-.022v-.111a5.328,5.328,0,0,0-1.213-.11.29.29,0,0,1,.055-.11c-.35-.059-.7-.093-1.055-.148a5.087,5.087,0,0,1-.6-.127c-.049-.089-.021-.181-.056-.276-.094.074-.619.267-.606,0-.146.153-.01.2,0,0-.148.154-.4-.1-.553-.147a5.444,5.444,0,0,1-.8-.215.6.6,0,0,1-.241-.189c-.16-.018-.32-.042-.478-.073a4.394,4.394,0,0,1-.978-.309,4.152,4.152,0,0,0-.735-.365,4.1,4.1,0,0,1-.917-.362,6.008,6.008,0,0,0-.884-.394c-.282-.089-.473-.351-.777-.446a4.676,4.676,0,0,1-.789-.444c-.322-.175-.653-.334-.976-.509a6.952,6.952,0,0,1-.666-.509c-.263-.189-.538-.361-.8-.548a4.553,4.553,0,0,1-.635-.522.666.666,0,0,0-.259-.209c-.138-.054-.173-.037-.249-.165a.633.633,0,0,0-.265-.231,1.888,1.888,0,0,0-.235-.1.2.2,0,0,0-.062-.158.917.917,0,0,0-.213-.118c-.1-.056-.082-.239-.12-.256-.09-.041-.04.189-.171.011-.069-.093-.19-.386-.33-.366-.294.043-.154-.252-.36-.355-.118-.058-.405-.107-.287-.3-.219-.052-.433-.108-.386-.386-.173.1-.412-.236-.33-.386a.607.607,0,0,1-.46-.264,1.448,1.448,0,0,1-.147-.288.821.821,0,0,1-.282-.169c-.292-.264-.412-.69-.771-.886a.49.49,0,0,1-.214-.378,3.859,3.859,0,0,1-.594-.66,6.951,6.951,0,0,0-1.06-1.324c.2-.029-.2-.421-.242-.486-.069-.118-.419-.535-.385-.582.076-.106-.378-.438-.445-.547-.188-.3-.357-.621-.522-.939-.13-.252-.256-.505-.387-.757-.1-.188-.364-.543-.279-.768a.837.837,0,0,1-.331-.717c-.279.034-.218-.256-.055-.331a18.439,18.439,0,0,0-5.126.221,2.84,2.84,0,0,1,.165.772c.074-.26.214.347.226.391a4,4,0,0,0,.241.674c.079.165.306.388.281.552-.018.124.08.225.146.317a.513.513,0,0,1,.1.436.511.511,0,0,1,.357.255c.169.3.158.693.469.9-.146.017.037.376-.055.5.165.06.105-.079.22-.11.107.236.185.486.31.714.1.183.416.375.381.553-.04.2.2.191.276.357.066.14.09.342.246.416a.152.152,0,0,0-.165.055c.218.108.692.461.551.772.18,0,.241.149.3.289.078.186.231.147.319.317.1.2.158.465.378.577.167.086.16.334.31.469.116.1.305.207.365.359a.136.136,0,0,1-.019.138q.181.175.358.354c.434.436.852.887,1.27,1.339.379.411.759.822,1.148,1.224.14.145,1.116.987,1.056,1.1-.119.224.1.137.236.173a.867.867,0,0,1,.45.358,1.093,1.093,0,0,1,.111.193.463.463,0,0,1,.27.061c.136.085.2.238.311.351s.269.086.3.226c.029.12.175.12.244.2a.177.177,0,0,1,.029.15.575.575,0,0,1,.337.089c.17.119.134.322.319.344a.582.582,0,0,1,.143.049c.144.049.014.088.118.152a.123.123,0,0,1,.115.084c.012.126.158.019.236.054a1.464,1.464,0,0,1,.409.369c.075.079.339.185.351.281.006.04.649.41.76.484a.994.994,0,0,0,.519.188c-.013.287.177.2.378.275a1.208,1.208,0,0,1,.493.35c.12.147.336.118.5.236.2.142.17.261.44.338.143.04.288.073.428.124.214.079.1.038.073.165.179-.037.324.216.441,0,.042.195.3.117.276.331.316-.111.593.356.781.275.155-.068.185-.011.291.13a.351.351,0,0,0,.351.165c.022.034.007.066-.045.092h.33c.251,0,.118.037.286.145s.327.106.5.22a1.689,1.689,0,0,0,.565.234q.134.03.271.048c.19.024.143.065.286.159.232.153.708.084.851.352a1.842,1.842,0,0,1,.434.1,4.884,4.884,0,0,0,.614.227c1.176.271,2.118.558,3.2.717M.21-139.008c.259,0,0-.26,0,0,.037,0,0-.037,0,0m.33-.5c-.185-.168-.167.2,0,0m1.544,9.15c-.12.031,0,.4-.007.52a6.713,6.713,0,0,1-.1.748.988.988,0,0,1,.123.765c-.019.144-.045.288-.059.433a1.751,1.751,0,0,0-.008.29h.11c.012.01,0,.315,0,.357.016.261.014.523.027.784.03.622-.036,1.27.055,1.885a2.092,2.092,0,0,0,.4.7c.2.308.378.341.73.4a12.811,12.811,0,0,0,2.147.119c1.079-.006,2.164-.076,3.242-.061.464.006.884.157,1.34.186.726.045,1.453-.017,2.18-.013a6.6,6.6,0,0,0,1.552-.092,10.1,10.1,0,0,1,2.223-.024c1.426.014,2.855-.037,4.28.022.622.026,1.216.209,1.833.217.739.01,1.484,0,2.224-.02,1.416-.031,2.873.049,4.281-.1a.79.79,0,0,0,.623.046,4.342,4.342,0,0,1,.955.043,10.769,10.769,0,0,1,2.115.021,6.52,6.52,0,0,1,1.885-.061c.742-.027,1.48-.047,2.222-.053.643-.006,1.287-.02,1.928-.069.3-.023.595-.053.89-.1a7.138,7.138,0,0,1,.964-.124c.329-.02,1.381-.013,2.068-.07.638-.053,1.3.034,1.948.037s1.346-.056,2-.021a20.884,20.884,0,0,0,2.132.044c1.319-.058,2.624.007,3.946-.092,1.384-.1,2.774,0,4.159-.1,1.487-.105,2.974-.124,4.46-.256,1.389-.124,2.789-.081,4.183-.146,1.427-.066,2.547.011,3.974-.035.72-.023,1.5.023,2.218.051s1.691.071,2.418.106a40.968,40.968,0,0,0,4.133-.11c1.466-.079,2.93-.172,4.4-.21.535-.014,1.076-.66,1.389-1.054a8.211,8.211,0,0,0,1-1.563,3.17,3.17,0,0,0,.16-.8,3.528,3.528,0,0,0,.184-.554c.056-.718-.055-1.442-.015-2.162a4.254,4.254,0,0,0-.032-.839,6.219,6.219,0,0,1-.024-.882c.011-.652.038-1.3.051-1.956a17.092,17.092,0,0,0-.04-1.976c-.015-.159.041-.177.153-.283a.61.61,0,0,1-.1-.492c.014-.094.08-.269.035-.358a1.22,1.22,0,0,0-.1-.142c0-.1.1-.13.11-.22.02-.116-.059-.217-.055-.331.009-.267.005-.534,0-.8-.025-.671-.08-1.34-.106-2.01-.446-.2-.477-.769-.8-1.086-.41-.4-1.025-.513-1.4-.954a4.266,4.266,0,0,1-.814-.217,1.668,1.668,0,0,0-.808-.028c-.309.019-.617-.023-.926-.031-.369-.009-.723.089-1.089.11-.662.039-1.321-.057-1.982-.073a2.943,2.943,0,0,0-.955.1c-.32.1-.638-.065-.969.026a5.816,5.816,0,0,1-1.879.079c-.316-.017-.635-.031-.952-.02-.15.005-.3.017-.448.036-.21.028-.281-.109-.479-.173a7.243,7.243,0,0,0-1.926-.08c-.708-.029-1.406-.162-2.115-.185-1.371-.045-2.745-.105-4.113-.038-.6.029-1.219-.113-1.829-.125q-.991-.02-1.983-.028c-.55,0-1.1.011-1.654-.014-.711-.032-1.4-.181-2.118-.172-.645.008-1.289.06-1.934.067a16.561,16.561,0,0,0-2.082-.087,3.214,3.214,0,0,1-.9.073,7.254,7.254,0,0,0-.973-.1q-1.17-.014-2.341,0c-.6.006-1.078.15-1.678.132-.677-.02-1.352,0-2.028.024-.581.02-1.161.041-1.742.038a2.1,2.1,0,0,0-.9.057c-.293.142-.625.006-.931.034-.242.022-.45.128-.7.135-.318.009-.635-.023-.953-.029-.69-.013-1.343.223-2.036.145a13.766,13.766,0,0,0-1.985-.03c-.3.008-.595-.007-.892-.015-.263-.007-.517.062-.778.055a1.454,1.454,0,0,1-.356-.057.858.858,0,0,0-.426.025,5.858,5.858,0,0,1-.911.046c-.746,0-1.493.021-2.239.049-1.462.055-2.923.135-4.386.138-.7,0-1.4-.014-2.1-.06a4.044,4.044,0,0,0-1.019-.035,4.068,4.068,0,0,1-1.14,0c-1.328-.115-2.667.091-4,.093-.559,0-1.118-.009-1.676.006a14.319,14.319,0,0,1-1.636.113c-.282-.026-.395-.146-.676-.068a3.568,3.568,0,0,1-.752.148,1.257,1.257,0,0,1-.368-.1c-.283-.071-.035.041-.184.1-.034.012-.272-.037-.322-.029-.219.033-.44.054-.66.071-.33.026-.662.068-.993.067a2.237,2.237,0,0,1-.5-.054A2.56,2.56,0,0,1,8-142.58a11.608,11.608,0,0,1-2.088.181,3.486,3.486,0,0,0-.986.058,2.529,2.529,0,0,1-.907.143,2,2,0,0,0-1.31.57c-.73.718-.573,2.031-.666,2.966a7,7,0,0,0,.091,1.16c.019.323-.078.647-.061.981.019.381-.134.749-.1,1.12a3.615,3.615,0,0,1,.039,1.16,4.629,4.629,0,0,0,.068,1.129,7.533,7.533,0,0,0-.076,1.186,3.814,3.814,0,0,0,.115.441c.051.171-.057.019-.094.136-.026.082.012.625-.025.631a.233.233,0,0,1-.14-.08c-.02.207.2.256.22.441-.178.047-.023-.2,0,0m22.874-18.464c-.289.167-.422.49-.642.725a10.322,10.322,0,0,0-.632.969,7.1,7.1,0,0,0-.666.953c-.089.173-.1.333-.261.426a.746.746,0,0,0-.28.454c.181-.1.336.122.441-.11a.905.905,0,0,0,.519.1c.161-.011.418-.141.418.062.4-.273,1.142-.006,1.593-.033a.824.824,0,0,0,.336-.077.512.512,0,0,1,.09-.378c.155-.207.227-.43.369-.638a3.282,3.282,0,0,1,.453-.609c.134-.118.016-.224.169-.322a.98.98,0,0,0,.369-.3,3.643,3.643,0,0,1,.259-.45c.075-.091.212-.087.3-.218.163-.246.262-.559.528-.719-.064-.014-.068-.09-.1-.135-.112-.173-.151.123-.179.176a.9.9,0,0,1-.488.4c-.076.019-.1.07-.173,0a.838.838,0,0,1-.333.266c-.279.135-.593.183-.867.33-.151.081-.132.141-.314.078a1.837,1.837,0,0,1-.476-.241,1.242,1.242,0,0,1-.27-.267c.051-.135.167-.277.119-.43s-.088-.108.017-.235c.034-.04.18-.185.105-.248-.1-.085-.486.3-.406.471-.361.209-.115-.241,0,0m.551-.717c.208.021.35-.308.276-.386-.113.107-.269.172-.276.386M22.2-145.787c.254-.155.286-.311.421-.539a4.436,4.436,0,0,1,.412-.507c.123-.15.2-.438.343-.516.028-.016.327-.286.312-.2-.142-.013.55-.962.7-1.069.014-.01.1-.078.124-.034a2.1,2.1,0,0,1,.224-.469,6.7,6.7,0,0,1,.624-.762,2.961,2.961,0,0,0,.491-.721c.155-.346-.082-.463-.364-.643a1.581,1.581,0,0,1-.532-.457c-.1-.162-.068-.273-.231-.38s-.279-.224-.432-.317a.1.1,0,0,0,.11-.055c-.353.07-.51.38-.688.656a1.033,1.033,0,0,1-.325.346c-.182.108-.218.409-.392.57a.9.9,0,0,1-.194.136c0,.183.034.169-.112.262-.1.064-.129.271-.24.273-.093,0-.288.511-.339.6a2.723,2.723,0,0,1-.456.539.9.9,0,0,0-.277.467c-.036.214-.25.354-.369.545a1.411,1.411,0,0,1-.377.508c-.15.112-.1.29-.239.389-.333.232-.435.66-.727.931a.809.809,0,0,1-.176.125c-.147.077-.092.115-.179.247-.116.177-.3.283-.312.515a22.579,22.579,0,0,0,2.976,0c-.051-.156.061-.175.184-.169.22.011.017-.158.036-.272.125-.077-.023.133,0,0m8.653-15.984c.26,0,0-.26,0,0,.037,0,0-.037,0,0m9.977,13.5a6.365,6.365,0,0,1-.993,1.48,3.857,3.857,0,0,0-.438.7c-.121.26-.375.368-.444.684.507-.017,1.014-.006,1.52-.017.237-.005.474-.017.711-.038.157-.015.314-.034.47-.056.012.127.106.138.2.063.128-.107.14-.3.268-.4s.027-.287.168-.451a6.049,6.049,0,0,0,.791-.941,1.3,1.3,0,0,1,.4-.457,1.458,1.458,0,0,1,.216-.127.385.385,0,0,1,.095-.272c.1-.111.236-.184.277-.335s.264-.244.373-.416a1.359,1.359,0,0,1,.287-.379c.12-.091.18-.024.18-.2s.1-.176.207-.285c.359-.347.592-.8.95-1.148-.532-.264-1.077-.5-1.6-.784-.216-.116-.477-.4-.66-.2-.22.232-.431.474-.635.721-.783.949-1.476,1.977-2.341,2.857-.355.913,1.12-1.14,0,0m13.945-12.071a33.749,33.749,0,0,0-3.362-1.047c.007-.254-.34-.2-.518-.235-.24-.046-.477-.107-.712-.176-.5-.147-.983-.332-1.483-.471a5.1,5.1,0,0,1-1.372-.343c-.116-.075-.271.026-.409.02a5.171,5.171,0,0,1-.638-.1,1.455,1.455,0,0,0-.5-.023c-.225.042-.338-.064-.576-.081a2.885,2.885,0,0,0-.657.079.932.932,0,0,1-.353,0c-.044-.01.024-.114-.055-.11a.172.172,0,0,1-.055.11,1.571,1.571,0,0,1-.218.012c-.1,0-.419.017-.444-.123-.2.275-.976.083-1.268.11-.144.07-.122.261-.33.22-.088.005-.122-.052-.156-.12-.07-.141-.19-.1-.324-.078-1.336.206-2.659.49-4,.666q-.262.034-.524.063c-.237.027-.166.072-.336.191-.2.139-.41.067-.627.149s-.405.045-.638.132c-.374.141-.749.277-1.123.417a19,19,0,0,0-1.844.743c-.27.134-.523.3-.8.418a1.727,1.727,0,0,1-.429.12,1.717,1.717,0,0,1-.382.28c-.212.11-.6.086-.714.257s-.333.245-.487.381c-.137.122-.3.09-.443.253a.4.4,0,0,1-.191.14c-.154.044-.094.088-.09.24,0,.132-.192.158-.136.011.107-.277-.214-.005-.28.052a6.263,6.263,0,0,1-1.543.856,10.632,10.632,0,0,0-2.834,2.043.905.905,0,0,1-.279.192c-.154.063-.116.09-.216.211-.125.151-.31.241-.423.4a1.107,1.107,0,0,1-.38.381c-.187.112-.327.376-.506.536a2.284,2.284,0,0,0-.376.392,1,1,0,0,0-.107.2c-.063.161-.1.111-.227.216s-.21.275-.367.357q-.157,0-.105.149c0,.158-.081.171-.181.283a11.589,11.589,0,0,1-.772,1c-.115.1-.512.555-.425.757-.177-.076-.254.2-.316.31A.314.314,0,0,1,19-149.7a2.226,2.226,0,0,1-.2.509c-.113.209-.876,1.033-.627,1.2-.218.046-.214.352-.441.386.04.1.051.244-.063.3-.158.082-.05.108-.124.269-.115.246-.3.395-.254.7a2.253,2.253,0,0,0-.551.992,3.881,3.881,0,0,0,.962.073c.277.007.4.085.585-.144.133-.16.247-.335.384-.493.186-.214.511-.377.494-.7.251-.02.358-.544.607-.441.042-.446.481-.612.63-1,.085-.219.358-.373.512-.563a7.143,7.143,0,0,0,.431-.631c.131-.2.371-.261.506-.486.1-.172.179-.464.356-.573.147-.091.21-.4.349-.411.261-.026.193-.557.524-.471-.188.014-.03-.24.036-.3a4.272,4.272,0,0,0,.474-.551,3.015,3.015,0,0,1,1.144-1.078c.015.114-.081.168-.155.23-.106.089.023.242.116.153.12-.115.059-.113.242-.056s.417-.08.6-.131c.394-.113.986.076,1.3-.252a1.838,1.838,0,0,0,.281-1.107,2.415,2.415,0,0,0-.006-.271.34.34,0,0,0,.249-.081c.113-.1.192-.2.357-.194.029-.118,0-.488.192-.423a.63.63,0,0,1,.313.308,5.082,5.082,0,0,0,.487.943c.344-.019.543-.508.826-.661-.165.265-.611.6-.621.928a.7.7,0,0,0,.115.338,1.267,1.267,0,0,1,.088.2c.063.2.131.124.328.143.852.084,1.8.554,2.625.1a2.58,2.58,0,0,1-.488.591c-.168.189-.158.5-.307.641a5.047,5.047,0,0,0-1.131,1.118c-.111.2-.269.576-.091.756a.988.988,0,0,1,.31.752c.245.3.957,1,.22,1.145-.149.029-.181.091-.321.007a3.54,3.54,0,0,0-.463-.245,1.052,1.052,0,0,0-.366-.088c-.2-.006-.1-.121-.261-.22a.488.488,0,0,0-.672.023,5.607,5.607,0,0,0-.631.737c-.2.26-.383.526-.594.773a8.843,8.843,0,0,0-.646.656c-.1.154,0,.151-.2.2-.148.035-.089.2-.169.315-.13.184-.377.256-.42.5a6.037,6.037,0,0,0,.726-.092c.2-.027.142-.03.243.079.057.061.427-.039.515-.039.326,0,.653.068.978.039a.879.879,0,0,0,.349-.1,2.256,2.256,0,0,0,.565.075,4.027,4.027,0,0,0,.868-.13.236.236,0,0,1,.1-.259c.166-.1.141-.095.239-.261a3.129,3.129,0,0,1,.877-1.14c.194-.112.3-.4.457-.583a3.366,3.366,0,0,0,.53-.717c.122-.257.472-.424.665-.656.131-.159.307-.618.519-.591.09.011.436-.6.529-.7.209-.221.446-.416.658-.636a2.734,2.734,0,0,0,.254-.3c.125-.174.254-.214.376-.357.083-.1.25-.289.415-.249a3.549,3.549,0,0,1-.359.5,1.062,1.062,0,0,1-.292.223c-.159.081-.167.158-.264.309a5.24,5.24,0,0,1-.442.56c-.135.158-.108.343-.437.426-.026.21-.22.369-.345.508a5.123,5.123,0,0,0-.595.871c-.095.164-.079.111-.219.175-.12.054-.081.1-.157.218a2.666,2.666,0,0,1-.442.6c-.388.34-.575.847-.953,1.2a1.341,1.341,0,0,1-.29.207.46.46,0,0,1-.084.28c-.123.171-.327.262-.357.492a.563.563,0,0,0,.551-.11c-.008.269.983.078,1.2.078.278,0,.556.009.834.018.347.011.479.051.718-.212.678-.745,1.261-1.569,1.925-2.326s1.232-1.6,1.911-2.358c.708-.788,1.453-1.54,2.179-2.31-.031.131.056.207.055.331q-.234.228-.462.464a10.044,10.044,0,0,0-.95,1.134c-.118.167-.156.239-.329.317-.131.059-.135.189-.226.315a.661.661,0,0,1-.349.25,6.424,6.424,0,0,1-.365.631,4.228,4.228,0,0,1-.738.857c.056.111-.068.244-.136.313a1.716,1.716,0,0,0-.384.44,17.607,17.607,0,0,0-1.354,2.168c.813-.023,1.626-.011,2.438-.019.4,0,.8-.014,1.2-.036.206-.224.35-.5.545-.728a1.437,1.437,0,0,1,.282-.264.2.2,0,0,1,.126-.252c.1-.052-.01-.123.039-.189a1.705,1.705,0,0,1,.348-.3,1.937,1.937,0,0,0,.454-.7,2.281,2.281,0,0,1,.632-.648c.033-.028-.072-.086-.056-.11.077-.109.215-.141.293-.261.1-.149.042-.147.221-.19.141-.034.189-.22.249-.335a.771.771,0,0,1,.559-.482,1.081,1.081,0,0,1,.363-.657,1.817,1.817,0,0,0,.464-.556,1.725,1.725,0,0,0,.278-.056c.03-.008.348-.143.205-.155-.187-.015-.29.073-.045-.177a1.484,1.484,0,0,0,.443-.715c-.6-.212-1.13.234-1.506.655-.226.253-.565.235-.886.345-.351.121-.684.288-1.026.432-.006-.527.153-1.041.175-1.566,0-.1.035-.709-.191-.432-.061.075-.085.234-.205.124a1.979,1.979,0,0,0,.664-1.2.524.524,0,0,0-.241-.63c-.169-.142-.3-.4-.491-.464a1.046,1.046,0,0,1-.462-.334,1.79,1.79,0,0,1-.186-.291c-.193,0-.3.078-.35-.125-.084-.38-.522-.451-.643-.812a1.566,1.566,0,0,0,.931-.352c.188-.138.539-.018.785-.024.321-.009.64-.043.96-.062.131-.008.262-.014.394-.013.258,0,.23,0,.344-.231a3.734,3.734,0,0,0,.665-1.743c.2-.134.251-.4.425-.56.12-.111.167-.047.211-.225.036-.145.085-.319.245-.372.026.158.278.347.11.5.267.066.407.51.552.717a4.933,4.933,0,0,1,.276.661,1.217,1.217,0,0,0,.216.248c.128.142-.04.105,0,.193a.329.329,0,0,1,.11.055q.053.125.117.243a.663.663,0,0,1,.1.363,4.646,4.646,0,0,0,1.105.184,11.655,11.655,0,0,0,2.312.257,2.431,2.431,0,0,1-.507.66l-.264.277c-.009.159.089.309-.017.421-.353.372-.909.432-1.278.817-.447.467-.136,1.189-.085,1.744.029.316.287.464.312.75.031.328-.222.586.02.9.58-.681,1.168-1.355,1.773-2.013q.241-.263.487-.522c.251,0,.235-.04.346-.264.127-.257.292-.586.591-.673.075.227-.22.3-.326.459a5.566,5.566,0,0,1-.406.636c-.179.209-.361.262-.468.517-.036.087-.262.339-.4.207a2.477,2.477,0,0,0-.11.441q-.221.2-.429.412a6.076,6.076,0,0,0-.835,1.056c-.124.2-.136.406-.389.406.006.118-.092.177-.112.285-.045.241-.493.607-.662.842a2.055,2.055,0,0,1-.714.692c.062.4-.353.7-.585.97-.613.724-1.159,1.508-1.84,2.172.879.016,1.757-.062,2.635-.1.463-.018.926-.026,1.388-.013.216-.255.434-.716.772-.827-.194-.056.124-.266.164-.307a3.06,3.06,0,0,0,.375-.457c.11-.163.16-.328.322-.4a.438.438,0,0,0,.237-.271c.026-.294.582-.669.775-.89.293-.336.569-.686.855-1.027a7.047,7.047,0,0,1,.854-.89c-.068-.2.3-.466.453-.536.067-.032.063-.187.115-.267a1.124,1.124,0,0,1,.392-.355,1.54,1.54,0,0,0,.473-.606c.222.212.3-.3.479-.246.193.057-.129.3-.186.357-.181.176-.373.34-.552.519a2.652,2.652,0,0,0-.4.493,1.848,1.848,0,0,0-.17.365,2.291,2.291,0,0,0-.311.274,5.729,5.729,0,0,0-.515.655c-.08.114-.161.228-.246.339-.135.177-.057.086-.2.055a.714.714,0,0,1-.194.3c-.132.152-.1.32-.239.456-.336.333-.581.744-.906,1.087-.106.112-.248.189-.263.356-.019.218-.268.373-.416.544a6.354,6.354,0,0,0-.848,1.279c.506.005,1.011,0,1.517.006.207,0,.415.008.622.021.114.007.228.016.342.028.086-.126.179-.248.276-.366.32-.392.679-.751.985-1.156a2.977,2.977,0,0,1,.44-.592,3.289,3.289,0,0,0,.511-.542,4.672,4.672,0,0,1,.411-.468c.156-.149.376-.22.449-.418a1.262,1.262,0,0,1,.33-.5,1.389,1.389,0,0,1,.292-.2,1.046,1.046,0,0,1,.181-.336,1.612,1.612,0,0,1,.48-.38,4.113,4.113,0,0,1,.544-.682c.367-.382.776-.723,1.109-1.137a.677.677,0,0,1-.276-.331c.817.123,1.288-.92,2.039-1.047a2.287,2.287,0,0,0-.661.772,4.476,4.476,0,0,0,.821-.129c.291-.061.373-.238.524-.5a1.444,1.444,0,0,0,.2-.706c.006-.361-.3.012-.5-.1.235-.216.5-.829.831-.807.256.018.3-.3.547-.3-.1.482.5.693.652,1.069a5.116,5.116,0,0,0,.386.68.631.631,0,0,1,.01.621,1.171,1.171,0,0,0,1.006-.276c.146-.162.5-.525.757-.551-.192-.036-.056-.153.017-.214a5.777,5.777,0,0,0,.48-.439c.146-.151.26-.011.336-.125.063-.095.083-.242.215-.27a.308.308,0,0,0,.055.22c-.441.133-.617.582-.954.849-.215.171-.634.6-.645.915a7.93,7.93,0,0,1,1.07.208c.147.021.375-.017.234.214-.124.2-.163.148.006.364.4.514-.774.909-1.069,1.013a1.583,1.583,0,0,0-.625.342c-.19.194.1.631,0,.891.136.026.182.156.2.277.04.261.126.24.3.434.2.226.606.553.552.888.728-.376.991-1.282,1.764-1.6-.023-.1.038-.384.192-.321.207.086.249-.117.347-.284s.341-.2.5-.339a4.569,4.569,0,0,1,.447-.38,2.878,2.878,0,0,1-.583.616c-.139.1-.336.219-.3.431a9.9,9.9,0,0,0-1.253,1.323c-.2.231-.4.458-.62.668a4.814,4.814,0,0,0-.485.682c-.391.537-.837,1.032-1.225,1.571-.1-.123-.284-.1-.394-.2s.346-.576.436-.691c.221-.282.929-.834.894-1.145a2.66,2.66,0,0,1-1.4-.519,6.026,6.026,0,0,0-.591-.366c-.192-.1-.485.2-.61.085a15.154,15.154,0,0,0-1.306.961c-.2.113-.409.02-.614.148a2.03,2.03,0,0,0-.255.21c-.163.143-.2.114-.4.106-.369-.015-.578.292-.789.544a1.135,1.135,0,0,1-.381.323c-.212.1-.462-.024-.347-.279.2-.433.688-.614.952-.993.158-.227.259-.494.406-.729a1.355,1.355,0,0,0,.236-.938c-.007-.3.282-.436.35-.7a1.388,1.388,0,0,0-.018-.4c-.009-.216.144-.194-.04-.357-.233-.208-.447-.435-.667-.656-.117-.118-.237-.234-.36-.345-.178-.162-.272-.062-.444.078-.373.3-.584.774-1.008,1.021.039.237-.153.246-.275.386-.028.266-.3.412-.49.56s-.146.3-.29.452-.341.237-.444.413c-.09.154.009.12-.162.22-.1.06-.175.157-.271.226-.175.125-.2.4-.385.566a3.341,3.341,0,0,0-.4.384.753.753,0,0,0-.127.265c-.04.158-.119.177-.238.288a3.976,3.976,0,0,0-1.1,1.476c.9.115,1.774-.145,2.672.025a6.543,6.543,0,0,0,1.358,0c.514-.013,1.029-.024,1.544-.027.4,0,.79.058,1.185.062.152,0,.223-.112.351-.116.218-.007.437,0,.655.011.443.022.886.061,1.329.045a4.272,4.272,0,0,1,1.433.055c.081-.292,1.668-.025,1.984-.055a21.011,21.011,0,0,1,2.23-.072c1.645.018,3.292.126,4.935.017a5.108,5.108,0,0,0-.478-1.259,5.716,5.716,0,0,0-.349-.559.423.423,0,0,0-.094-.347c-.272-.245-.332-.641-.588-.9-.143-.145-.161-.364-.293-.536s-.284-.3-.4-.478c.012.017.073-.078.055-.11-.054-.1-.226-.168-.3-.273a5.726,5.726,0,0,0-.569-.856c-.465-.466-.768-1.118-1.247-1.594-.277-.275-.554-.549-.809-.844-.121-.139-.154-.328-.272-.457-.088-.1-.237-.079-.33-.165s-.124-.237-.221-.331c-.113-.109-.244-.2-.367-.294a1.123,1.123,0,0,1-.316-.333c-.1-.184-.128-.046-.282-.048-.038-.032-.038-.068,0-.107.07-.13.035-.143-.086-.192a1.339,1.339,0,0,1-.494-.4,5.946,5.946,0,0,0-.792-.648c-.09-.076-.054-.153-.218-.188-.226-.048-.423-.325-.61-.489a5.986,5.986,0,0,0-.694-.526,3.714,3.714,0,0,1-.739-.45,8.177,8.177,0,0,0-1.148-.765c-.18-.137-.429-.161-.631-.284-.182-.112-.349-.249-.538-.35a1.373,1.373,0,0,0-.58-.161c-.022-.137-.307-.274-.408-.293-.459-.084-.99-.529-1.466-.314.1-.027.117-.086.055-.165-1.049-.421.062.079,0,0m-27.228-5.457c-.056,0-.066-.045-.111-.055-.15.089.081.185.111.055M10.131-145.126c.134,0,.208-.123.348-.09s.237.09.274-.051a1.924,1.924,0,0,0,.57.046,3.211,3.211,0,0,1,.8.023c.134.01,1.04.136,1.01-.068,0-.03.464.107.525.085.08-.028-.019-.1.111-.11a.314.314,0,0,1,.244.09c.1.171.639-.965.682-1.066.17-.41.555-.806.623-1.222.034-.207.166-.3.294-.478.152-.211.19-.418.356-.613.283-.332.365-.849.778-1.065a17.223,17.223,0,0,1,.943-1.536,6,6,0,0,0,.96-1.473c.056-.2.225-.176.358-.342s.2-.355.331-.508c.056-.065.166-.04.22-.11.1-.13.192-.266.284-.4a2.282,2.282,0,0,1,.576-.68c.136-.09.542-.411.518-.627.5-.338.921-.785,1.394-1.164.4-.321.781-.664,1.18-.991.344-.281.84-.876,1.284-.876-.05-.3.557-.53.734-.664.193-.147.351-.332.544-.479s.459-.141.668-.316a1.093,1.093,0,0,1,.52-.294c.211-.035.072-.039.175-.181.069-.095.247-.123.348-.167.254-.113.44-.282.69-.385a7.1,7.1,0,0,0,.744-.43,1.023,1.023,0,0,1,.648-.17c.032-.212.184-.237.361-.28.211-.051.209-.261.444-.248.3.016.486-.294.789-.308.239-.011.446-.259.724-.3.151-.023.23.008.344-.092a1.141,1.141,0,0,1,.284-.178,2.251,2.251,0,0,1,.7-.18c.2-.02.14.017.241-.12s.428-.133.569-.169c.61-.152,1.21-.344,1.822-.493.311-.075.624-.139.941-.183a.857.857,0,0,0,.422-.115.585.585,0,0,1,.453-.08c.231.062.283-.126.525-.1a1.107,1.107,0,0,0,.628-.1,5.287,5.287,0,0,1,1.752-.135c.543-.009,1.077-.169,1.624-.175.75-.007,1.5,0,2.248.044a2.906,2.906,0,0,0,.86.067c.057-.02.063-.091.121-.111a1.19,1.19,0,0,1,.43.048q1.151.154,2.3.319a42.779,42.779,0,0,1,4.687.758c1.321.344,2.512,1.045,3.819,1.427.208.061.1.059.2.2.133.066.269.126.406.182.328.135.664.251.994.381a3.118,3.118,0,0,0,.942.374c.249,0,.529.3.753.429a3.038,3.038,0,0,1,1.259,1c.427-.025.622.582,1.047.441-.072.247.149.113.275.165.181.074.259.309.5.22a2.339,2.339,0,0,0,.533.541c.136.089.218.077.283.231a1.2,1.2,0,0,0,.331.431c.223.205.469.388.671.615.137.155.242.371.384.537.173.2.448.319.572.535a5.657,5.657,0,0,0,.614.853c.385.452.813.864,1.186,1.327a7.584,7.584,0,0,0,.505.674,5.884,5.884,0,0,1,.6.661,1.8,1.8,0,0,1,.324.7c.274.062.334.256.451.483.277.538.7.993.935,1.552.125.294.325.444.477.732s.3.585.441.882c.312.663.588,1.342.834,2.032.08.227.031.327.294.328h.528q.495,0,.99-.008c.6-.008,1.209-.022,1.813-.037a6.638,6.638,0,0,1,.722.008.594.594,0,0,0,.4-.074,3.646,3.646,0,0,0-.134-.408c-.1-.261-.219-.517-.3-.787a.7.7,0,0,0-.149-.357.387.387,0,0,1-.083-.377c-.366-.268-.286-.82-.606-1.1-.015-.013-.03-.215-.054-.255-.064-.1-.129-.206-.193-.309a3.245,3.245,0,0,1-.386-.755,1.366,1.366,0,0,0-.3-.5c-.031-.276-.29-.409-.3-.661-.012-.223-.242-.35-.327-.564a4.226,4.226,0,0,0-.562-.877c-.394-.556-.739-1.145-1.133-1.7a2.277,2.277,0,0,1-.431-.624c-.059-.231-.4-.443-.557-.66a4.052,4.052,0,0,0-.486-.671,4.011,4.011,0,0,1-.645-.783,9.769,9.769,0,0,0-1.384-1.436c-.418-.423-1.118-.826-1.361-1.341-.158-.334-1.089-.574-.969-1.044-.2.058-.2-.087-.336-.16s-.111.047-.225-.1a1.689,1.689,0,0,0-.25-.252,4.881,4.881,0,0,1-.519-.438,3.345,3.345,0,0,0-.627-.457,7.509,7.509,0,0,0-1.385-.912c-.216-.09-.275-.33-.494-.435-.144-.068-.21-.037-.331-.149a1.725,1.725,0,0,0-.444-.283c-1.222-.583-2.368-1.3-3.579-1.9a6.109,6.109,0,0,0-1.641-.677,4.806,4.806,0,0,1-.706-.309,4.855,4.855,0,0,0-.984-.206,1.475,1.475,0,0,0-.52-.382c-.217-.113-.369-.053-.582-.114a.993.993,0,0,1-.247-.173c-.113-.079-.187-.015-.3-.047a6.033,6.033,0,0,0-.863-.292,3.737,3.737,0,0,1-.571-.2c-.032-.007-.107.068-.165.055-.136-.032-.271-.073-.406-.111a2.092,2.092,0,0,0-.862-.11c-.15-.2-.406-.163-.624-.21a.169.169,0,0,1-.147-.12,1.794,1.794,0,0,0-.386.11c-.069-.2-.287-.136-.442-.113-.207.031-.4-.176-.619-.166-.288.013-.553-.046-.841-.049-.5-.005-1.147-.294-1.626-.057-.037-.269-1.426-.168-1.682-.17a3.48,3.48,0,0,0-.544.034c-.207.031-.361-.106-.581-.113a1.689,1.689,0,0,0-.5.066q-.113.031-.223.073a.388.388,0,0,0-.279-.1,6.322,6.322,0,0,1-1.05.069c-.218-.035-.359-.1-.56-.011a.95.95,0,0,1-.646.04c-.054.188-.188.062-.355.067a4.486,4.486,0,0,0-.582.1c-.109.017-.331-.064-.4.055-.086.153-.113-.066-.208-.055-.04.006-.033.119-.141.124a2.994,2.994,0,0,0-.41-.014c-.147.027-.16.129-.335.1-.133-.021-.254-.015-.327.118a.278.278,0,0,0-.165-.165c-.011.217-.307.128-.441.165-.2.056-.515.255-.717.11.006.089-.01.13-.093.09-.127-.063-.088-.036-.15.053-.041.059-.379.1-.363-.033a1.578,1.578,0,0,1-.706.311c-.206.015-.513-.028-.672.185a13.289,13.289,0,0,0-1.79.5,7.821,7.821,0,0,0-.869.314c-.314.109-.64.178-.949.3a3,3,0,0,1-.78.329c-.225.025-.051.139-.186.158a.519.519,0,0,0-.354.113.323.323,0,0,1-.21.076c-.153-.012-.167.046-.3.13-.243.149-.672.181-.82.378-.054.072-.153.1-.187.185a.105.105,0,0,0-.146,0,.352.352,0,0,1-.2.075c-.168,0-.236.121-.383.218a5.888,5.888,0,0,1-.683.354c-.215.1-.523.4-.743.4-.153,0-.745.676-.881.386.058.43-.888.729-1.187.976a5.067,5.067,0,0,1-.705.52,5.584,5.584,0,0,0-.79.541,4.116,4.116,0,0,0-.3.283c-.142.146-.151.042-.3.126s-.146.3-.343.357c-.233.066-.2.236-.39.361a1.959,1.959,0,0,1-.391.2c-.006.128-.131.237-.218.316-.145.131-.363.4-.553.4-.154,0-.26.387-.424.52-.21.17-.442.313-.644.5a.3.3,0,0,0-.126.242c-.012.082-.16.161-.223.208a4.1,4.1,0,0,0-1.072,1.129c-.089.143-.1.236-.255.294a.427.427,0,0,0-.194.169c-.113.166-.344.322-.4.472a1.354,1.354,0,0,1-.382.473c-.148.147-.2.409-.344.478-.172.079-.175.24-.253.353-.035.051-.09.08-.1.147-.023.149-.139.134-.246.259a5.561,5.561,0,0,1-.346.5c-.127.12-.173.042-.173.245s-.087.206-.214.339a9.3,9.3,0,0,0-.993,1.529,3.323,3.323,0,0,0-.476.708,2.352,2.352,0,0,1-.32.6,1.49,1.49,0,0,0-.257.659,1.359,1.359,0,0,0-.429.645,2.072,2.072,0,0,1-.32.6c-.15.17-.154.5-.246.717-.223.537-.35,1.077-.553,1.611-.192.5-.283,1.038-.435,1.552.026-.02.322-.073.272.036l-.052.019h0M.43-124.732c-.01-.082.02-.2-.056-.22-.071.073-.073.2.056.22m50.45-48.455c.291.074.858.19,1.154.243.647.114,1.3.215,1.938.356a8.658,8.658,0,0,1,1.676.526,5.094,5.094,0,0,0,.84.34,10.381,10.381,0,0,1,1.1.346c.6.23,1.18.5,1.786.727.66.245,1.3.533,1.947.824.589.267,1.178.537,1.778.779.135.542,1.073.73,1.494.981.558.332,1.111.66,1.677.978a6.914,6.914,0,0,1,.742.411c.25.187.389.485.639.677.368.284.8.5.959.976a14.477,14.477,0,0,1,1.321,1.186c.177.136.183.433.375.535.156.082.2.05.273.219a1.146,1.146,0,0,0,.185.3c.146.175.328.316.474.492a1.137,1.137,0,0,1,.183.3,4.035,4.035,0,0,1,.412.332c.309.3.554.858.965,1.046.166.51.7.766.895,1.255.064.158.184.2.325.3a.508.508,0,0,0,.214.1.617.617,0,0,0-.011.318c.058.227.377.421.287.674.226-.046.134.139.331.11-.043.316.27.3.367.534.07.165.016.192.19.305.153.1.114.27.242.426.105.128.377.608.488.607.089,0,.409.56.452.705.054.183.092.259.3.289a1.747,1.747,0,0,0,.246.581,3.281,3.281,0,0,1,.526.962,1.284,1.284,0,0,1,.241.273.421.421,0,0,1,.034.223,1.713,1.713,0,0,1,.242.254,5.456,5.456,0,0,1,.61,1.129,5.086,5.086,0,0,0,.581,1.042,2.636,2.636,0,0,0,.432,1.056,3.6,3.6,0,0,1,.23.432,1.555,1.555,0,0,0,.165.661,8.466,8.466,0,0,1,.434.851c.2.4.3.857.467,1.274a3.377,3.377,0,0,0,.257.52,5.111,5.111,0,0,0,.858.047,9.049,9.049,0,0,1,1.553-.025,2.551,2.551,0,0,1,.7.24c.164.08.367.093.522.179.009.005.026.22.161.2.164-.025.367.308.478.456a5.5,5.5,0,0,1,.825,1.624c.091.287.135.584.219.873a1.676,1.676,0,0,1,.136.816c-.034.162-.118.191-.113.375a3.688,3.688,0,0,0,.051.46,1.518,1.518,0,0,1-.049.984,29.436,29.436,0,0,1,.168,4.274c0,.7,0,1.406,0,2.11a8.7,8.7,0,0,1-.094.964,5.222,5.222,0,0,0,.1.913c.06,1.343.048,2.727-.015,4.069a1.71,1.71,0,0,0,.082.778c.082.186.156.177.115.4q-.045.245-.094.489a10.191,10.191,0,0,1-.556,1.969c-.057.134-.119.266-.187.4-.1.183-.116.056-.214.179-.053.068-.084.127-.186.112a.6.6,0,0,1-.116.278,1.127,1.127,0,0,1-.505.342c-.095.036-.569.1-.585.214-.024.167-.425.187-.605.248a3.21,3.21,0,0,1-.756.187c-.3.025-.621-.015-.927-.015-.215,0-.835-.15-.931,0a2.28,2.28,0,0,0-.258.771c-.033.164-.027.236-.142.345a.577.577,0,0,0-.138.274c-.15.536-.633.891-.594,1.473.034.5-.5,1.074-.7,1.507-.08.175-.117.511-.358.545a6.394,6.394,0,0,1-.458.957,16.019,16.019,0,0,0-.861,1.564.724.724,0,0,1-.2.345.728.728,0,0,0-.181.238,2.412,2.412,0,0,1-.338.641c-.1.1-.148.061-.168.207a.519.519,0,0,1-.108.231c-.058.079-.233.488-.294.486-.157-.006-.111-.118-.19.088a1.692,1.692,0,0,1-.176.332,4.78,4.78,0,0,0-.471.716c-.068.158-.031.22-.188.288a.422.422,0,0,0-.192.179c-.081.135-.13.311-.309.341a1.183,1.183,0,0,1-.206.615c-.2.248-.451.44-.641.692-.092.123-.114.213-.249.291a1.224,1.224,0,0,0-.27.205c-.176.181-.209.352-.412.5a.5.5,0,0,0-.181.233c-.064.179-.057.062-.2.15s-.162.328-.345.388a.653.653,0,0,0-.256.455,3.208,3.208,0,0,0-.617.522c-.186.193-.361.4-.552.587s-.559.358-.691.589c-.1.179-.308.254-.427.418-.1.137-.04.172-.2.26a2.282,2.282,0,0,0-.327.217,6.392,6.392,0,0,1-1.315,1.046,2.715,2.715,0,0,1-.481.438.878.878,0,0,1-.346.113.781.781,0,0,1-.234.339c-.183.159-.41.255-.6.4-.045.035-.452.521-.486.253-.162.092,0,.243-.2.273-.1.014-.136.1-.2.162-.093.1-.178.042-.273.147a1.475,1.475,0,0,1-.461.3,1.775,1.775,0,0,0-.38.226.671.671,0,0,0-.14.163c-.1,0-.266-.045-.336.051a.327.327,0,0,0-.05.17c-.1.058-.2.113-.3.164-.252.128-.512.238-.765.364a1.052,1.052,0,0,0-.354.292c-.134.147-.387.129-.557.229a3.315,3.315,0,0,1-1.054.549,5.513,5.513,0,0,0-1.012.461,3.686,3.686,0,0,0-.491.222c-.114.066-.3.261-.265.034-.141.121-.588.5-.772.276-.106.362-.577.379-.882.331a.13.13,0,0,0,.055.165,1.522,1.522,0,0,0-.514.2c-.11.044-.231.047-.345.081-.235.07-1.107.292-1.4.364a8.46,8.46,0,0,1-.911.4,1.814,1.814,0,0,1-.377.07,1.371,1.371,0,0,0-.343.126.343.343,0,0,1-.275.021c-.156-.056-.423.124-.244.011a15.354,15.354,0,0,1-1.929.661,9.055,9.055,0,0,1-1.029.236c-.369.084-.959.236-1.32.294a19.26,19.26,0,0,1-2.28.085c-.949.051-1.9.069-2.85.07q-.639,0-1.279-.008a3.412,3.412,0,0,1-1.151-.1c-.26-.1-.068.028-.177.083s-.3-.028-.4-.056c-.384-.107-.9.079-1.238-.083a2.509,2.509,0,0,0-1.116-.139c-.2,0-.408.009-.612,0-.043-.125-.165-.151-.282-.152a1.7,1.7,0,0,1-.419-.017.366.366,0,0,1-.181-.106.649.649,0,0,1-.258.033.905.905,0,0,1-.486-.178c-.185-.141-.313-.027-.327-.062-.073-.028-.181.151-.183-.005-.14-.034-.125.011-.265-.022-.169.046-.125-.072-.245-.1-.291-.033-.581-.071-.87-.122-.5-.086-.956-.316-1.439-.4-.179-.032-1.264-.137-1.219-.412-.467.127-.785-.338-1.213-.22-.182-.065-.019-.145-.249-.185a2.706,2.706,0,0,1-.494-.14,6.939,6.939,0,0,0-.929-.339,2.206,2.206,0,0,0-.422-.053.834.834,0,0,0-.335-.26,3.107,3.107,0,0,1-.392-.2.675.675,0,0,0-.39-.144.735.735,0,0,1-.327-.151.638.638,0,0,1-.154-.178.362.362,0,0,1-.166.025c-.079-.015-.48-.195-.384-.3-.192-.012-.093.1-.268-.025a2.291,2.291,0,0,0-.333-.2c-.236-.116-.484-.205-.722-.317a2.126,2.126,0,0,1-.662-.454c-.3.013-.43-.228-.677-.273a1.09,1.09,0,0,1-.617-.358c-.185-.162-.514-.23-.633-.405a2.168,2.168,0,0,0-.514-.405c-.143-.114-.1-.14-.293-.158a.61.61,0,0,1-.393-.186,1.3,1.3,0,0,1-.18-.254.442.442,0,0,1-.273-.074c-.147-.1-.242-.245-.435-.26-.209-.016-.4-.286-.6-.4s-.63-.228-.738-.455c-.116-.245-.275-.3-.512-.414a.885.885,0,0,1-.3-.217c-.034-.041-.013-.132-.055-.165-.156-.126-.4-.066-.521-.249-.111-.164-.267-.265-.307-.477-.033-.172-.363-.356-.532-.472-.142-.1-.216-.09-.3-.248a3.454,3.454,0,0,0-.21-.35,2.568,2.568,0,0,0-.542-.577,2.278,2.278,0,0,0-.342-.217,3.087,3.087,0,0,0-.271-.418c-.175-.214-.367-.3-.522-.532a5.043,5.043,0,0,0-.5-.576c-.154-.165-.264-.362-.423-.523a2.727,2.727,0,0,1-.594-.706.751.751,0,0,0-.246-.209c-.117-.08-.089-.155-.145-.274a1.533,1.533,0,0,0-.373-.43.831.831,0,0,1-.283-.52c-.143-.124-.178.027-.265-.175a2.184,2.184,0,0,0-.277-.449,3.978,3.978,0,0,1-.435-.609,2.808,2.808,0,0,0-.469-.622,9.5,9.5,0,0,1-1.1-1.568,14.724,14.724,0,0,1-.861-1.81c-.266-.662-.671-1.243-.926-1.921-.24-.637-.551-1.238-.824-1.86a9.812,9.812,0,0,0-.489-.991c-.123-.211,0-.141-.028-.351-.034-.3-.135-.206-.392-.192A5.669,5.669,0,0,1,1.8-121.819a4.881,4.881,0,0,1-.681-.733c-.088-.117-.169-.237-.245-.361a.789.789,0,0,0,0-.331A.848.848,0,0,1,.5-123.92c-.036-.3.109-.553-.231-.592.054-.181.074-.678-.166-.661a1.437,1.437,0,0,0,.068-.793c-.01-.132.08-.828.05-.849-.188-.129-.029-.831-.02-1.043a2.124,2.124,0,0,0-.027-.5c-.038-.188-.136-.257.095-.287-.191-.123-.037-.379-.055-.551-.009-.088-.107-.134-.111-.22-.006-.168-.006-.337,0-.505.006-.712-.1-1.416-.095-2.125.008-.672.072-1.349.124-2.019.013-.177.027-.355.031-.532,0-.1-.1-.1-.11-.165-.01-.1.061-.192.09-.279a.848.848,0,0,0-.072-.5c-.158-.576.162-1.251.073-1.849a4.236,4.236,0,0,1-.09-.793c0-.105.11-.172.11-.276,0-.146-.131-.108-.1-.291a1.86,1.86,0,0,0,.067-.361c0-.137-.079-.183-.056-.315.013-.075.008-.2.085-.246a.49.49,0,0,1-.1-.3c-.011-.245.068-.485.07-.73a.728.728,0,0,0-.076-.352c.146-.1.139-.243.117-.4a1.214,1.214,0,0,1,.13-.583,5.989,5.989,0,0,1,.2-.666c.1-.223.186-.451.292-.67.126-.258.428-.39.526-.647.2-.518.651-.559,1.024-.916s1.345-.22,1.828-.206c.327.01.655.022.983.02.175,0,.35-.006.524-.015a1.619,1.619,0,0,1,.071-.352c.083-.283.193-.559.263-.846.028-.114,0-.28.123-.329.16-.064.119-.271.155-.451a20.064,20.064,0,0,1,1.369-3.247c.043-.112.082-.226.114-.341a.839.839,0,0,0,.217-.27c.085-.165.248-.267.174-.436-.064-.145.229-.534.3-.657a8.954,8.954,0,0,0,.469-.9,15.5,15.5,0,0,1,1.98-3.559c.346-.441.6-.944.9-1.415a4.55,4.55,0,0,1,.5-.66,6.273,6.273,0,0,0,.524-.893,17.6,17.6,0,0,1,2.433-2.835c.2-.2.293-.469.5-.67a7.878,7.878,0,0,1,.726-.6,19.856,19.856,0,0,0,1.476-1.392,7.6,7.6,0,0,1,.711-.5c.2-.152.312-.38.505-.539s.439-.246.642-.4a2.246,2.246,0,0,1,.5-.36,7.986,7.986,0,0,0,1.71-1.042c.632-.4,1.269-.795,1.915-1.172a2.958,2.958,0,0,0,.632-.5,4.208,4.208,0,0,0,.778-.313,8.629,8.629,0,0,1,1.611-.753c.226-.061.349-.2.592-.264a2.362,2.362,0,0,0,.622-.235,11.687,11.687,0,0,1,1.548-.48,3.157,3.157,0,0,1,.658-.293,3.655,3.655,0,0,0,.644-.134c.61-.185,1.221-.364,1.827-.563a5.706,5.706,0,0,0,.747-.284c.23-.113.4-.3.651-.3a5.41,5.41,0,0,0,.723-.153,5.139,5.139,0,0,0,.784-.2,10.41,10.41,0,0,1,1.6-.241c.591-.084,1.17-.25,1.767-.292.535-.038,1.539-.115,2.072-.152a4.3,4.3,0,0,1,1.3.057,6.789,6.789,0,0,0,1.376.079c.22-.007.559-.026.786-.014s.464.044.7.051c.438.012.877.007,1.314.045.461.04.9.187,1.361.237.222.023.711.073.931.081a6.851,6.851,0,0,1,.954.161" fill="#2b2e34" fill-rule="evenodd"/>
    <path id="Pfad_301" data-name="Pfad 301" d="M64.795-133.184c.233,0-.284.622-.5.63.054-.2.409-.463.5-.63" transform="translate(-34.765 -22.162)" fill="#2b2e34" fill-rule="evenodd"/>
    <path id="Pfad_302" data-name="Pfad 302" d="M108.4-133.3c.194-.048-.322.625-.359.677a.97.97,0,0,1-.144.168c-.157-.045.031-.184,0-.276.144.124.261-.113.166-.165.245-.06.408-.366.337-.4" transform="translate(-58.307 -22.101)" fill="#2b2e34" fill-rule="evenodd"/>
    <path id="Pfad_303" data-name="Pfad 303" d="M55.2-130.749c-.068.116-.354.413-.421.529-.247-.2.268-.632.421-.529" transform="translate(-29.58 -23.47)" fill="#2b2e34" fill-rule="evenodd"/>
    <path id="Pfad_304" data-name="Pfad 304" d="M81.262-130.2c-.036.056-.339.308-.323.417-.137-.022.209-.465.323-.417" transform="translate(-43.746 -23.772)" fill="#2b2e34" fill-rule="evenodd"/>
    <path id="Pfad_305" data-name="Pfad 305" d="M114.937-129.072a.8.8,0,0,1-.481.531c.09-.258.416-.341.449-.606a.394.394,0,0,1,.433-.386c-.02.218-.354.227-.4.461" transform="translate(-61.885 -24.136)" fill="#2b2e34" fill-rule="evenodd"/>
    <path id="Pfad_306" data-name="Pfad 306" d="M80.34-129.292c.16.031-.308.306-.278.386-.183-.054.063-.326.278-.386" transform="translate(-43.254 -24.267)" fill="#2b2e34" fill-rule="evenodd"/>
    <path id="Pfad_307" data-name="Pfad 307" d="M72.822-88.648c.034.016.212.137.22,0-.1-.048-.171-.185-.22,0M68.3-99.752c.09-.239.448-.11.678-.09a13.7,13.7,0,0,0,1.811.074,4.417,4.417,0,0,0,.773-.094,1.623,1.623,0,0,1,.531.022,3.676,3.676,0,0,0,1.451,0c.474,0,.6.209.881.277.03.254.194.49.151.752-.031.186-.422.188-.6.254a1.687,1.687,0,0,1-.324.089c-.261.038-.315,0-.346.305-.028.276.031,1.125.031,1.371,0,.708-.1,1.609-.077,2.317.022.653.023,1.329.073,1.982a12.021,12.021,0,0,1-.057,1.609,13.32,13.32,0,0,0,0,1.379c.011.226.068.511.069.729a.761.761,0,0,0,.076.341c.089.178.3.158.465.246.113.059.217.132.323.2a.88.88,0,0,0-.069.383c-.034.22-.305.141-.317.334a3.14,3.14,0,0,0-.684.055,3.282,3.282,0,0,1-1.114.069c-.351-.006-.7-.02-1.053-.02-.282,0-.467.12-.728.131-.308.012-.609-.069-.915-.075-.22,0-.316-.2-.508-.119s-.252-.141-.422-.217c-.221-.1-.249-.276-.148-.5a.663.663,0,0,1,.453-.328c.175-.049.206.009.242-.2s.094-1.418.1-1.626c.026-.673.077-1.777.067-2.013-.017-.395.1-2.332.037-2.985-.068-.669.015-1.077-.028-1.754-.02-.321-.03-.726-.03-1.047,0-.459-.051-.5-.305-.62a1.67,1.67,0,0,1-.458-.29c-.1-.114-.167-.133-.187-.209a2.409,2.409,0,0,1,.16-.74" transform="translate(-36.841 -40.162)" fill="#2b2e34" fill-rule="evenodd"/>
    <path id="Pfad_308" data-name="Pfad 308" d="M25.754-91.78c.17-.162-.272-.763-.321-.961a4.334,4.334,0,0,1-.1-.687c-.037-.446.1-.264.421-.281.158-.053.249-.2.392-.277.211-.114.28-.092.353-.362a8.7,8.7,0,0,0,.113-1.465,8.715,8.715,0,0,0,.057-1.219,5.952,5.952,0,0,0-.089-.755c-.1-.194-.342-.179-.518-.237-.407-.134-.537-.677-.541-1.052a1.975,1.975,0,0,1,.122-.7,2.722,2.722,0,0,0,.7.076,5.309,5.309,0,0,0,1.154.09,1.935,1.935,0,0,1,1.24.254,1.09,1.09,0,0,1,.4.358c.143.193.367.182.5.36a1.908,1.908,0,0,0,.412.489,1.217,1.217,0,0,1,.278.193c.062.073-.015.215.105.243.281.066.387.661.3.908-.046.139-.164.294-.133.448s.138.1.068.278a1.282,1.282,0,0,0-.069.218c.4.7-.044,1.705-.441,2.315a.049.049,0,0,0,.055-.055c.114.077-.5.4-.22.441-.166.086-.357.495-.563.465-.123-.017-.226.15-.3.255-.127.181-.4.22-.6.308a7.123,7.123,0,0,1-1.207.455,4.577,4.577,0,0,1-1.572-.105c.1-.1.341.034,0,0" transform="translate(-13.693 -40.228)" fill="#2b2e34" fill-rule="evenodd"/>
    <path id="Pfad_309" data-name="Pfad 309" d="M47.684-99.169c.146-.368.788.116.97.2.165.077.365.064.415.222.031.1.238.262.268.073.14.108.085.366.331.331.042.3.262.428.385.684a5.9,5.9,0,0,1,.237,1.918c.018.158.078.216-.041.321-.1.087-.055.221-.029.33a.378.378,0,0,0-.211.318c-.027.184-.16.269-.257.432-.168.282-.263.6-.406.892s-.587.124-.78.4a2.918,2.918,0,0,1,1.65,1.4,7.326,7.326,0,0,1,.114,2.513,5.237,5.237,0,0,1,1.1-.055,1.127,1.127,0,0,1,.271.713c.031.306.141.6-.165.785-.212.131-.271.468-.536.635a3.423,3.423,0,0,0-.618.4c-.333-.019-.666.022-1,.034a2.767,2.767,0,0,1-.895-.083,1.178,1.178,0,0,1-.422-.226c-.119-.035-.164.074-.276.055-.269-.205-.565-.373-.832-.583a1.811,1.811,0,0,1-.505-.969c-.026-.088-.138-.238-.151-.322a4.145,4.145,0,0,1-.021-.684,1.283,1.283,0,0,0-.082-.647.818.818,0,0,1-.146-.442c-.019-.56.3-1.406-.263-1.791a.839.839,0,0,1-.26-.238c-.059,0-.249.053-.268.031-.079-.089.275-.252-.008-.252a.377.377,0,0,0,.042-.384c-.08-.262-.066-.316.18-.42a2.834,2.834,0,0,1,.384-.132A.861.861,0,0,1,46-94.285a.747.747,0,0,0,.175-.482c.025-.244.048-.488.067-.733a8.269,8.269,0,0,0,.008-1.249c-.022-.283-.011-1.036-.237-1.2s-.367-.387-.664-.411c-.025,0-.154-.318-.175-.318-.037,0-.023.058-.05.065s-.037.3-.053.306c-.062.029-.045.054-.114.14-.12.149-.357.208-.349.38a2.032,2.032,0,0,1-.067.611c-.05.187-.194.288.056.321a1.017,1.017,0,0,0-.109.5.461.461,0,0,0,.051.194c.079.142,0,.118-.052.271-.043.134.15.349-.055.465a2.122,2.122,0,0,1,.073.661.507.507,0,0,0,.038.191c.067.149-.037.1-.018.237.028.2.085.249-.008.458s.016.494.042.706c.024.194-.134.565.038.615-.106.131-.059.226-.023.373a2.524,2.524,0,0,1,.027.767,6.362,6.362,0,0,0-.009,1.451,1.7,1.7,0,0,1,.009.674c-.049.195-.118.186-.046.368a.815.815,0,0,1,.02.359c-.036.6.738.418.891.8a.316.316,0,0,0,.124.17,2.2,2.2,0,0,1-.145.413c-.115.242-.281.52-.564.529-.6.017-1.2.008-1.792.016-.511.007-.988.11-1.488.144a4.811,4.811,0,0,1-1.688-.331.546.546,0,0,0-.5-.276c-.12-.194-.5-.506-.266-.673.184-.13.114-.215.368-.2a2.474,2.474,0,0,0,.651-.014c.44-.1.377-.49.33-.84a2.26,2.26,0,0,1-.037-.531c.02-.182.153-.057.03-.277a.337.337,0,0,1,.048-.389c.057-.085-.149-.06-.056-.193.05-.071.144-.082.143-.187.011-.152-.156-.187-.157-.378,0-.218-.1-.469-.012-.68.071-.165-.071-.229.039-.434.087-.161-.147-.269-.008-.475.1-.147-.139-.237-.012-.422.075-.11-.095-.283.1-.313a.153.153,0,0,0-.165-.055c.053-.145-.073-.41.165-.386-.017-.119-.2-.085-.167-.254a2.062,2.062,0,0,0,.112-.518c-.015-.176-.257-.5.055-.551-.128-.192-.267-.738,0-.882a.261.261,0,0,1-.165.055.9.9,0,0,0,.016-.531c-.053-.293.1-.614-.04-.866-.088-.154.06-.133.08-.257a1.119,1.119,0,0,0-.084-.51c-.061-.186-.035-.342-.2-.456a3.211,3.211,0,0,0-.509-.3c-.358-.162-.093-.56.07-.793.134-.192.9-.067,1.163-.076.239-.008,2.005-.014,2.224-.008a4.185,4.185,0,0,0,.633-.054,2.013,2.013,0,0,1,1.215.437c.044.038.113.377.142.416.144-.065.044-.394.065-.421.209-.26.5-.534.755-.445.531.185,1.1,0,1.637.223q.006-.061-.055-.055c.037-.127.217.1.165.22.047-.119.075-.173,0,0" transform="translate(-21.127 -40.335)" fill="#2b2e34" fill-rule="evenodd"/>
    <path id="Pfad_310" data-name="Pfad 310" d="M76.053-55.373a3.479,3.479,0,0,1-.717.937.725.725,0,0,1,.316-.474c.195-.14.1-.4.4-.463-.187.364-.184.037,0,0" transform="translate(-40.734 -64.234)" fill="#2b2e34" fill-rule="evenodd"/>
    <path id="Pfad_311" data-name="Pfad 311" d="M86.922-50.059c.189.1-.536.721-1.158,1.308-.169-.384.821-.989.773-1.087.153-.064.346,0,.386-.22.239.131-.042.24,0,0" transform="translate(-46.361 -67.107)" fill="#2b2e34" fill-rule="evenodd"/>
    <path id="Pfad_312" data-name="Pfad 312" d="M106.208-47.213c.126.077-.393.521-.441.606-.21-.16.452-.463.441-.606" transform="translate(-57.164 -68.646)" fill="#2b2e34" fill-rule="evenodd"/>
    <path id="Pfad_313" data-name="Pfad 313" d="M105.068-46.11c-.206.379-.828.78-.782.92a.678.678,0,0,1,.365-.654c.144.037.078-.131.165-.165.253-.1.194-.049.253-.1" transform="translate(-56.378 -69.242)" fill="#2b2e34" fill-rule="evenodd"/>
    <path id="Pfad_314" data-name="Pfad 314" d="M113.217-43.612a.582.582,0,0,1-.441.441c.217-.078.179-.409.441-.441" transform="translate(-60.977 -70.593)" fill="#2b2e34" fill-rule="evenodd"/>
    <path id="Pfad_315" data-name="Pfad 315" d="M79.046-128.391c0,.244-.774.507-.9.933-.249-.124.314-.821.551-.717-.034-.191.242-.365.276-.22-.013-.055.076,0,.076,0" transform="translate(-42.218 -24.723)" fill="#2b2e34" fill-rule="evenodd"/>
    <path id="Pfad_316" data-name="Pfad 316" d="M131.6-99.992a1.315,1.315,0,0,0,.11.827,1.657,1.657,0,0,1-.425.579,1.416,1.416,0,0,0-.351.509c-.034.1-.1.353-.245.362-.287.018-.211,1.165-.2,1.417.022.464-1.074.932-1.254.415a17.117,17.117,0,0,1-.5-3.833c.2-.016.359-.1.33-.331.331,0,.661-.018.991-.025.31-.007.619,0,.928.013.2.011.458-.081.617.067-.047.339-.226-.21,0,0" transform="translate(-69.607 -40.063)" fill="#2b2e34" fill-rule="evenodd"/>
    <path id="Pfad_317" data-name="Pfad 317" d="M18.459-99.006c-.014.244-.16.458.057.847a3.541,3.541,0,0,1-.022.768,10.548,10.548,0,0,0-.036,1.076,3.847,3.847,0,0,0,.029,1.271c.018.137.036.409.043.639a1.231,1.231,0,0,0,.01.417c.077.252-.026.415.05.69.031.111-.041.168-.021.237.009.032.211.049.093.132-.151.107-.043.142.012.322a.16.16,0,0,1-.105.208.638.638,0,0,1,.057.375.677.677,0,0,0,.031.351.648.648,0,0,1,.031.464,7.078,7.078,0,0,0-.076.9c0,.3.134.591.123.882-.011.254-.118.493-.12.75,0,.2.3.421.12.573a.626.626,0,0,1,.718.359.91.91,0,0,1,.068.349c0,.253-.226.294-.445.363a27.384,27.384,0,0,1-2.767.2c-.365-.166-.815.033-1.192.054a3.037,3.037,0,0,1-1.071-.29.513.513,0,0,1-.349-.774,1.114,1.114,0,0,1,.3-.368c0-.153-.194-.163-.166-.331.749.244.693-3.458.689-3.826a48.269,48.269,0,0,0-.173-5.167,1.43,1.43,0,0,1,.023-.326,2.486,2.486,0,0,0,.013-.382c-.231-.073-.75-.347-.77-.564s-.295-.478-.032-.672a1.108,1.108,0,0,1,.8-.134,1.643,1.643,0,0,0,1.044-.034,4.664,4.664,0,0,1,.956.091,4.89,4.89,0,0,1,.525.027c.187.023.287-.124.475-.166.373-.084,1.206-.233,1.132.13a2.5,2.5,0,0,0-.055.559" transform="translate(-7.28 -40.214)" fill="#2b2e34" fill-rule="evenodd"/>
    <path id="Pfad_318" data-name="Pfad 318" d="M86.578-90.26a1.619,1.619,0,0,0-.037-.282,2.191,2.191,0,0,0-.272-.643c-.106-.176,0-.3-.08-.5a.749.749,0,0,0-.162-.234,2.172,2.172,0,0,0-.037-.419,6.25,6.25,0,0,0-.352-1.025,1.885,1.885,0,0,1-.11-.4,2.724,2.724,0,0,0-.218-.745,1,1,0,0,1-.138-.522c-.01-.075-.381-1.3-.161-.807-.019.251-.324-1.212-.527-1.317a.1.1,0,0,1,.11-.055c-.35-.325-.36-.88-.55-1.293-.117-.256-.264-.14-.452-.3a.705.705,0,0,1-.2-.58c.017-.249.083-.415.339-.412.335,0,.672-.005,1.007-.019.641-.027,1.283-.077,1.924-.047.872.04,2.276-.629,2.74.5.182.442-.6.612-.835.835.008.236-.011.473.012.708.026.266.254.463.257.684.006.534.4.983.4,1.517a8.389,8.389,0,0,0,.158.839c.016.085.116.345.11.331.05.121.2.662.316.7.09.033.111.492.166.643a2.243,2.243,0,0,0,.27.734c.156.183.128.514.188.754a9.192,9.192,0,0,1,.272,1.3c.021.3.149.642.141.939a2.759,2.759,0,0,1-.141,1.091c-.1.234-.192.644-.384.747-.1.051-.33.011-.418.074-.124.089-.217.027-.373.036s-.3.035-.445.037-.278-.123-.37-.069c-.294.172-.735.021-1.058.049-.138.012-.473-.578-.51-.762-.071-.347-.254-.841-.35-1.224a3.88,3.88,0,0,0-.226-.868" transform="translate(-45.085 -40.094)" fill="#2b2e34" fill-rule="evenodd"/>
    <path id="Pfad_319" data-name="Pfad 319" d="M161.371-92.369c0,.3-.593.232-.715.123a5.022,5.022,0,0,1-.326-.421,1.168,1.168,0,0,0-.26-.267,1.841,1.841,0,0,1-.359-.373,2.269,2.269,0,0,0-.372-.351.663.663,0,0,1-.251-.509c-.013-.076-.069-.136-.1-.237a1.944,1.944,0,0,1-.193-.35,8.078,8.078,0,0,0-.116,2.217c.025.709,0,1.424.012,2.134a2.015,2.015,0,0,1-.112.852c-.147.358.448.619.356.912a.607.607,0,0,1-.471.461,3.774,3.774,0,0,1-1.032.053c-.321-.016-.641-.046-.962-.058a4.45,4.45,0,0,0-.5,0c-.115.009-.2.113-.323.124a4,4,0,0,1-1.928-.263,1.712,1.712,0,0,1-.5-.467.629.629,0,0,1,.124-.4c.084-.153.25-.069.416-.076a3.172,3.172,0,0,0,.379-.05c.19-.032.179-.188.248-.36a1.109,1.109,0,0,0,.117-.461c-.007-.121-.159-.311.094-.3-.326-.336-.185-1.142-.158-1.559.017-.264.038-.526.045-.79.007-.227-.084-.488-.054-.706a.171.171,0,0,1,.111-.143.251.251,0,0,1-.062-.256c.021-.077.028-.134-.048-.185.02-.141.041-.283.054-.425.018-.191-.217-1.107.056-1.118a2.718,2.718,0,0,1-.12-1.343c0-.523,0-1.046-.011-1.569-.007-.261-.017-.521-.034-.781a1.689,1.689,0,0,0-.567-.38c-.2-.091-.5-.178-.485-.424a.762.762,0,0,1,.252-.581,1.393,1.393,0,0,1,.587-.088,3.573,3.573,0,0,0,.744-.154,4.422,4.422,0,0,1,1.422-.128c.454.014.908.042,1.359.1a5.963,5.963,0,0,1,.615.109c.309.074.239.2.374.443.128-.04.13-.211.173-.312.062-.147.268,0,.213-.239.275.294.271-.213.459-.26a2.649,2.649,0,0,1,1.074.037,6.066,6.066,0,0,0,.94.04,8.819,8.819,0,0,1,1.134.036c.508-.03.689,1.164.617,1.785a.616.616,0,0,1-.057.167.558.558,0,0,0,.014.366,4.711,4.711,0,0,0,.109.826.439.439,0,0,1-.09.539c-.135.137-.354.4-.541.374-.168-.02-.44.017-.555-.066-.156-.112-.322-.211-.47-.334a1.079,1.079,0,0,1-.34-.463c-.084-.237-.4-.334-.617-.463a3.828,3.828,0,0,1-.542-.376c-.191-.164-.326-.488-.563-.5-.438-.019-.678-.323-1.013-.553a2.582,2.582,0,0,0,.043,1.167c.048.451-.137,1.056.044,1.477a.666.666,0,0,1,.038.477,1.874,1.874,0,0,0,.085.661c.063.417-.171.77-.043,1.188.123-.065.093-.177.129-.3.046-.156.257-.136.373-.268a2.44,2.44,0,0,0,.48-.78,1.353,1.353,0,0,1,.473-.757c.324-.138.912-.515,1.11-.044.063.148.2.226.3.372a6.148,6.148,0,0,0,.015.663c.028.523-.045,1.039-.028,1.556.014.387.232.882.093,1.259a3.555,3.555,0,0,1-.3.468.435.435,0,0,0-.06.3c0,.3-.049-.151,0,0" transform="translate(-82.84 -39.418)" fill="#2b2e34" fill-rule="evenodd"/>
    <path id="Pfad_320" data-name="Pfad 320" d="M139.041-99.568c.129-.022.147-.346.175-.355a6.691,6.691,0,0,1,2.253-.136c.158,0,.475-.088.52.079a4.382,4.382,0,0,1,.131.6,1.274,1.274,0,0,1-.01.483,1.038,1.038,0,0,0,.155.619,1.585,1.585,0,0,1,.085.968c-.032.451.115.886.107,1.336,0,.212-.035.429-.25.509a.789.789,0,0,1-.556.012,1.763,1.763,0,0,1-.808-.671c-.22-.283-.39-.4-.6-.7a1.89,1.89,0,0,1-.28-.481.972.972,0,0,0-.205-.363,1.408,1.408,0,0,1-.367-.8,2.1,2.1,0,0,1,.033-.552c-.043-.016-.157-.206-.215-.25s-.133-.184-.18-.2c-.062-.024-.026.241-.054.337-.046.164.059.336.062.5a6.028,6.028,0,0,1-.1.821c-.058.5.021,1.839-.014,2.045a3.087,3.087,0,0,0-.021.661,3.876,3.876,0,0,0,.076.938c-.11.234.045.489-.018.725-.04.151-.1.019-.072.214a4.2,4.2,0,0,1,.037.5c.007.29,0,.582.025.87.016.157-.065.89-.067,1.012a1.506,1.506,0,0,0,.237.787c.135.227.316.422.446.652a4.453,4.453,0,0,0,.422.736.9.9,0,0,1,.255.524c.025.287-.322.414-.54.534a1.874,1.874,0,0,0-.338.221,2.071,2.071,0,0,0-.412-.055,9.629,9.629,0,0,0-1,.043,1.788,1.788,0,0,1-.686-.043.942.942,0,0,1-.781.163c-.545-.077-1.1-.108-1.638-.2a2.833,2.833,0,0,1-1.287-.482c-.227-.18-.012-.2-.1-.424-.068-.167-.216-.32-.114-.509.116-.215.361-.158.56-.144.15-.217.327-.415.48-.63a2.334,2.334,0,0,0,.316-1.77,2.57,2.57,0,0,1,.031-.907c.017-.155.016-.927.022-1.089q.023-.6.038-1.2c.032-1.355-.008-2.7-.078-4.048a6.291,6.291,0,0,1,.018-1.032c.051-.454.125-.328.492-.388a2.881,2.881,0,0,1,.7.023,4.642,4.642,0,0,0,.959.073c.475,0,.949-.043,1.424-.037a4.1,4.1,0,0,1,.579.017c.085.014.077.066.094.181.011.074-.046.275.054.283" transform="translate(-72.086 -40.04)" fill="#2b2e34" fill-rule="evenodd"/>
    <path id="Pfad_321" data-name="Pfad 321" d="M170.24-80.421a5.142,5.142,0,0,0,0,.893c.1.612-.168,1.2-.113,1.8-.65.045-1.3.036-1.953.026-.312-.005-.623-.01-.935-.005s-.792.165-.932-.172a1.494,1.494,0,0,1-.046-.685,3.646,3.646,0,0,0,.008-.431,2.669,2.669,0,0,0,.381-.131,3.159,3.159,0,0,0,1.216-1c.327-.42.594-.883.9-1.316.191-.268.4-.177.71-.153.271.021.733-.044.758.232a5.969,5.969,0,0,1,0,.945" transform="translate(-89.886 -50.036)" fill="#2b2e34" fill-rule="evenodd"/>
  </g>
</svg>
